<?xml version="1.0" standalone="no"?>
<!DOCTYPE svg PUBLIC "-//W3C//DTD SVG 1.1//EN" "http://www.w3.org/Graphics/SVG/1.1/DTD/svg11.dtd" >
<svg xmlns="http://www.w3.org/2000/svg">
<metadata>Generated by IcoMoon</metadata>
<defs>
<font id="icomoon" horiz-adv-x="1024">
<font-face units-per-em="1024" ascent="960" descent="-64" />
<missing-glyph horiz-adv-x="1024" />
<glyph unicode="&#x20;" horiz-adv-x="512" d="" />
<glyph unicode="&#xe900;" glyph-name="add" d="M512 960c-282.726 0-512-229.274-512-512s229.274-512 512-512 512 229.274 512 512-229.274 512-512 512zM786.432 448c0-27.136-22.016-49.152-49.152-49.152h-176.128v-176.128c0-27.136-22.016-49.152-49.152-49.152v0c-27.136 0-49.152 22.016-49.152 49.152v176.128h-176.128c-27.136 0-49.152 22.016-49.152 49.152v0c0 27.136 22.016 49.152 49.152 49.152h176.128v176.128c0 27.136 22.016 49.152 49.152 49.152v0c27.136 0 49.152-22.016 49.152-49.152v-176.128h176.128c27.136 0 49.152-22.016 49.152-49.152v0z" />
<glyph unicode="&#xe901;" glyph-name="arrow-down" d="M447.898 960v-778.854l-357.786 357.683-90.112-90.829 512-512 512 512-90.214 90.214-357.888-357.171v778.957h-128z" />
<glyph unicode="&#xe902;" glyph-name="arrow-left" d="M1023.898 512h-778.854l357.786 357.786-90.829 90.214-512-512 512-512 90.214 90.214-357.171 357.888h778.854v127.898z" />
<glyph unicode="&#xe903;" glyph-name="arrow-rigth" d="M0 384h778.854l-357.786-357.786 90.829-90.214 512 512-512 512-90.214-90.214 357.171-357.888h-778.854v-127.898z" />
<glyph unicode="&#xe904;" glyph-name="arrow-up" d="M576-64v778.854l357.786-357.786 90.214 90.931-512 512-512-512 90.112-90.214 357.888 357.069v-778.854h128z" />
<glyph unicode="&#xe905;" glyph-name="back" d="M1024 448.41c-0.205 20.070-16.589 36.25-36.659 36.045h-863.334l261.632 261.632c14.131 14.234 14.029 37.274-0.307 51.302-14.234 14.131-37.274 14.029-51.302-0.307l-323.584-323.584c-13.926-14.131-13.926-36.864 0-51.098l323.584-323.482c0.205-0.205 0.307-0.307 0.512-0.512 14.234-13.926 37.171-13.722 51.098 0.512 13.926 14.336 13.926 37.274 0 51.61l-261.632 261.12h863.334c20.173 0.102 36.557 16.486 36.659 36.762 0-0.102 0 0 0 0z" />
<glyph unicode="&#xe906;" glyph-name="backward" d="M44.032 94.515c-23.45 0-42.496 19.046-42.496 42.496v621.875c0 23.45 19.046 42.496 42.496 42.496h150.528c23.45 0 42.496-19.046 42.496-42.496v-621.875c0-23.45-19.046-42.496-42.496-42.496 0 0 0 0 0 0h-150.528zM905.114 109.466l-469.709 274.022c-36.762 18.432-51.61 63.078-33.28 99.84 7.168 14.336 18.842 26.010 33.28 33.28l469.709 274.022c37.069 21.811 84.787 9.523 106.701-27.546 7.68-13.005 11.366-27.853 10.752-42.906v-540.262c-2.253-44.237-39.424-78.643-83.661-77.414-11.674-0.102-23.142 2.253-33.792 6.963v0z" />
<glyph unicode="&#xe907;" glyph-name="calendar" d="M933.97 841.687h-30.003v30.003c-0.922 49.664-41.984 89.19-91.648 88.269-48.333-0.922-87.347-39.936-88.269-88.269v-30.003h-120.013v30.003c-0.922 49.664-41.984 89.19-91.648 88.269-48.333-0.922-87.347-39.936-88.269-88.269v-30.003h-124.006v30.003c-0.922 49.664-41.984 89.19-91.648 88.269-48.333-0.922-87.347-39.936-88.269-88.269v-30.003h-30.003c-49.664-0.102-90.010-40.346-90.010-90.010v-723.968c0.102-49.664 40.346-89.907 90.010-90.010h843.981c49.664 0.102 89.907 40.346 90.010 90.010v723.968c-0.205 49.664-40.448 89.907-90.214 90.010zM783.954 871.69c0.102 16.589 13.619 29.901 30.208 29.798 16.486-0.102 29.798-13.414 29.901-29.798v-120.013c0.102-16.589-13.312-30.106-29.901-30.106-16.589-0.102-30.106 13.312-30.208 29.798 0 0.102 0 0.205 0 0.307v120.013zM484.024 871.69c0.102 16.589 13.619 29.901 30.208 29.798 16.486-0.102 29.798-13.414 29.901-29.798v-120.013c0.102-16.589-13.312-30.106-29.901-30.106-16.589-0.102-30.106 13.312-30.208 29.798 0 0.102 0 0.205 0 0.307v120.013zM179.999 871.69c0.102 16.589 13.619 29.901 30.208 29.798 16.486-0.102 29.798-13.414 29.901-29.798v-120.013c0.102-16.589-13.312-30.106-29.901-30.106-16.589-0.102-30.106 13.312-30.208 29.798 0 0.102 0 0.205 0 0.307v120.013zM963.973 27.607c0-16.589-13.414-30.003-30.003-30.003h-843.981c-16.589 0-30.003 13.414-30.003 30.003v510.054h903.987v-510.054zM963.973 597.668h-904.090v154.010c0 16.589 13.414 30.003 30.003 30.003h30.003v-30.003c0.922-49.664 41.984-89.19 91.648-88.269 48.333 0.922 87.347 39.936 88.269 88.269v30.003h124.006v-30.003c0.922-49.664 41.984-89.19 91.75-88.269 48.333 0.922 87.347 39.936 88.269 88.269v30.003h120.013v-30.003c0.922-49.664 41.984-89.19 91.648-88.269 48.333 0.922 87.347 39.936 88.269 88.269v30.003h30.003c16.589 0 30.003-13.414 30.003-30.003l0.205-154.010zM874.168 477.86h-723.968c-16.589 0-30.003-13.414-30.003-30.003v0-360.038c0-16.589 13.414-30.003 30.003-30.003 0 0 0 0 0 0h723.968c16.589 0 30.003 13.414 30.003 30.003v0 360.038c0 16.486-13.414 30.003-30.003 30.003 0 0 0 0 0 0zM300.012 117.719h-120.013v120.013h120.013v-120.013zM300.012 297.738h-120.013v120.013h120.013v-120.013zM484.024 117.719h-124.006v120.013h124.006v-120.013zM484.024 297.738h-124.006v120.013h124.006v-120.013zM664.044 117.719h-120.013v120.013h120.013v-120.013zM664.044 297.738h-120.013v120.013h120.013v-120.013zM843.96 117.719h-120.013v120.013h120.013v-120.013zM843.96 297.738h-120.013v120.013h120.013v-120.013z" />
<glyph unicode="&#xe908;" glyph-name="camera" d="M511.898 550.502c-84.787 0-153.498-68.813-153.498-153.6s68.71-153.498 153.498-153.498 153.498 68.71 153.498 153.498c-0.205 84.685-68.813 153.293-153.498 153.6zM921.395 704h-122.573c-18.227 1.024-34.099 12.493-40.96 29.389l-32.256 94.72c-5.939 16.998-21.709 28.672-39.731 29.389h-348.262c-18.227-1.024-34.099-12.493-40.96-29.389l-31.744-94.72c-5.939-16.998-21.709-28.672-39.731-29.389h-122.573c-56.627 0-102.4-45.773-102.605-102.298v-460.698c0-56.525 45.773-102.502 102.4-102.605h819.2c56.525 0.205 102.195 45.875 102.4 102.4v460.902c-0.205 56.525-45.978 102.298-102.605 102.298v0zM511.898 141.005c-141.312 0-255.898 114.483-255.898 255.898s114.586 255.898 255.898 255.898 255.898-114.586 255.898-255.898c-0.41-141.21-114.688-255.488-255.898-255.898zM885.555 530.022c-19.763 0-35.84 16.077-35.84 35.84s16.077 35.84 35.84 35.84c19.763 0 35.84-16.077 35.84-35.84v0c-0.512-19.661-16.282-35.43-35.84-35.84z" />
<glyph unicode="&#xe909;" glyph-name="clock-plus" d="M667.341 453.734h-103.526v103.424c0 28.57-23.142 51.814-51.814 51.814-28.57 0-51.814-23.142-51.814-51.814v-103.526h-103.424c-28.57 0-51.814-23.142-51.814-51.814 0-28.57 23.142-51.814 51.814-51.814h103.526v-103.526c0-28.57 23.142-51.712 51.814-51.814 28.57 0.102 51.712 23.245 51.712 51.814v103.731h103.629c0 0 0 0 0.102 0 28.57 0 51.712 23.245 51.712 51.814-0.102 28.57-23.347 51.712-51.917 51.712zM103.117 735.744l159.13 132.915c10.752 9.011 17.408 21.914 18.534 35.84 1.126 13.414-3.174 26.829-12.083 37.069-9.626 11.674-24.166 18.534-39.424 18.432-12.083 0-23.757-4.198-32.973-11.981l-159.437-132.813c-10.752-9.011-17.408-21.914-18.534-35.942-1.024-13.517 3.482-26.829 12.288-37.069 9.728-11.776 24.166-18.637 39.424-18.534 12.083 0.102 23.757 4.403 33.075 12.083zM512 867.738c-257.331 0-465.92-208.589-465.92-465.92s208.691-465.818 465.92-465.818c257.229 0.307 465.613 208.691 465.92 465.92 0 257.229-208.589 465.818-465.92 465.818zM512 39.629c-200.090 0-362.291 162.202-362.291 362.291s162.202 362.291 362.291 362.291c199.987-0.205 362.086-162.304 362.291-362.291 0.102-200.090-162.099-362.291-362.291-362.291zM987.136 815.514l-159.334 132.506c-9.318 7.782-20.992 11.981-33.075 11.981-15.462 0-30.106-6.861-40.038-18.739-18.33-22.016-15.258-54.682 6.758-73.011l159.027-132.506c9.318-7.68 20.992-11.981 33.075-11.981 15.36 0 30.003 6.963 39.834 18.739 8.909 10.24 13.312 23.552 12.39 37.069-1.229 13.926-7.885 26.931-18.637 35.942z" />
<glyph unicode="&#xe90a;" glyph-name="clock" d="M101.683 735.437l159.334 132.506c10.854 8.909 17.613 21.811 18.842 35.84 1.126 13.517-3.174 26.931-11.981 37.171-9.728 11.878-24.269 18.842-39.526 18.842-12.083 0-23.859-4.301-33.178-11.981l-159.846-132.506c-10.65-9.011-17.306-22.016-18.33-35.942-0.102-1.024-0.102-1.946-0.102-2.97-0.307-28.877 22.938-52.531 51.814-52.838 11.981 0.102 23.654 4.301 32.973 11.878zM68.71 723.661h-0.102zM988.57 815.514l-159.744 132.506c-22.016 18.33-54.784 15.36-73.216-6.758-18.33-22.016-15.36-54.784 6.758-73.216l159.437-132.506c9.318-7.782 21.094-11.981 33.178-11.981 15.462 0.102 30.003 6.963 39.936 18.944 8.806 10.24 13.21 23.552 12.083 37.069-1.126 13.926-7.68 26.931-18.432 35.942zM512 876.032c-0.205 0-0.307 0-0.512 0-259.482-0.307-469.709-210.944-469.504-470.528 0.307-259.584 210.944-469.811 470.528-469.504 259.379 0.307 469.504 210.637 469.504 470.016 0 259.584-210.432 470.016-470.016 470.016zM512 30.003c-207.667 0-376.013 168.346-376.013 376.013s168.346 376.013 376.013 376.013 376.013-168.346 376.013-376.013c0-207.667-168.346-376.013-376.013-376.013zM535.45 641.024h-70.451v-282.010l246.784-148.070 35.226 57.856-211.558 125.44z" />
<glyph unicode="&#xe90b;" glyph-name="close" d="M1024 856.883l-103.117 103.117-408.883-408.883-408.883 408.883-103.117-103.117 408.883-408.883-408.883-408.883 103.117-103.117 408.883 408.883 408.883-408.883 103.117 103.117-408.883 408.883 408.883 408.883z" />
<glyph unicode="&#xe90c;" glyph-name="down" d="M511.928 248.044l-461.414 461.312c-11.264 11.264-29.594 11.264-40.858 0s-11.264-29.594 0-40.858v0l481.997-481.894c11.162-11.264 29.286-11.469 40.55-0.307 0.102 0.102 0.205 0.205 0.307 0.307l481.69 481.894c5.427 5.427 8.499 12.698 8.602 20.275 0.102 7.68-3.072 15.053-8.602 20.378-11.162 11.264-29.389 11.366-40.653 0.205-0.102-0.102-0.102-0.102-0.205-0.205l-461.414-461.107z" />
<glyph unicode="&#xe90d;" glyph-name="earth" d="M843.469 112.435c-21.606-0.102-43.008-3.584-63.488-10.24-66.97 78.643-182.989 92.877-267.059 32.87-7.373 15.462-17.101 29.798-28.774 42.291 34.816 12.902 66.458 33.28 92.672 59.494l89.395 89.395c7.782 7.782 7.782 20.378 0.102 28.16 0 0-0.102 0.102-0.102 0.102l-112.538 112.538 235.008 234.803c55.501-41.37 132.813-35.84 181.862 13.005l42.291 42.291c7.782 7.782 7.782 20.378 0.102 28.16 0 0-0.102 0.102-0.102 0.102l-168.96 168.755c-7.782 7.782-20.378 7.782-28.16 0.102 0 0-0.102-0.102-0.102-0.102l-42.291-42.291c-48.845-48.947-54.374-126.362-13.005-181.862l-234.701-234.701-112.64 112.538c-7.782 7.782-20.378 7.782-28.16 0.102 0 0-0.102-0.102-0.102-0.102l-89.293-89.293c-139.366-139.366-41.062-313.242-40.96-313.446 1.229-2.458 2.97-4.506 5.018-6.246-29.491-21.709-50.995-52.326-61.44-87.45-8.294 0.819-16.589 1.126-23.040 1.126-84.48-4.813-155.648-64.819-174.592-147.354-2.15-10.752 4.813-21.299 15.565-23.45 1.331-0.307 2.662-0.41 3.994-0.41h399.872c10.957 0 19.866 8.909 19.866 19.866s-8.909 19.866-19.866 19.866h-372.941c22.221 52.122 71.68 87.45 128.205 91.546 11.366 0 22.733-1.024 33.894-2.97 10.752-2.355 21.299 4.403 23.757 15.155 0.102 0.307 0.102 0.512 0.205 0.819 12.698 70.349 79.974 117.043 150.221 104.346 49.152-8.806 88.781-45.158 101.888-93.286 2.867-10.65 13.824-16.896 24.371-14.029 3.277 0.922 6.246 2.56 8.704 4.915 63.181 61.133 163.942 59.494 225.075-3.686 5.222-5.427 10.138-11.162 14.541-17.306 5.632-7.782 16.077-10.445 24.678-6.246 19.354 8.192 40.243 12.39 61.338 12.39 56.525-4.096 105.984-39.424 128.205-91.546h-373.248c-10.957 0-19.866-8.909-19.866-19.866s8.909-19.866 19.866-19.866h399.872c10.957 0 19.866 8.909 19.866 19.866 0 1.331-0.102 2.662-0.41 3.994-18.842 82.432-90.112 142.438-174.592 147.149zM801.69 883.814l28.262 28.262 140.698-140.698-28.262-28.262c-38.912-38.81-101.786-38.81-140.698 0-38.81 38.912-38.81 101.786 0 140.698zM447.078 207.77c-43.827 26.317-97.28 31.334-145.306 13.824-5.018 2.355-7.373 3.482-14.643 7.066-46.899 85.709-32.051 192 36.557 261.53l75.264 75.264 98.509-98.304-112.64-112.538c-7.782-7.782-7.782-20.378 0-28.262 7.782-7.782 20.378-7.782 28.262 0l112.538 112.538 98.304-98.406-75.264-75.264c-27.955-27.955-63.078-47.821-101.581-57.446zM532.787-20.173c0-24.205-9.811-43.827-21.914-43.827s-21.914 19.622-21.914 43.827c0 24.205 9.811 43.827 21.914 43.827s21.914-19.622 21.914-43.827z" />
<glyph unicode="&#xe90e;" glyph-name="envelope" d="M921.6 38.4h-819.2c-56.525 0.102-102.298 45.875-102.4 102.4v614.4c0 56.525 45.875 102.4 102.4 102.4h819.2c56.525-0.102 102.4-45.875 102.4-102.4v-614.4c-0.102-56.525-45.875-102.4-102.4-102.4zM109.978 746.803c-26.317 0-47.718-21.402-47.718-47.718 0-16.486 8.499-31.744 22.426-40.448l367.718-229.99c36.352-23.040 82.739-23.040 119.194 0l367.718 229.99c22.323 13.926 29.184 43.418 15.155 65.741-13.926 22.323-43.418 29.184-65.741 15.155l-376.73-235.315-376.73 235.622c-7.578 4.71-16.384 7.27-25.293 7.27v-0.307z" />
<glyph unicode="&#xe90f;" glyph-name="fall" d="M50.483 421.99c11.776-9.318 23.347-18.842 35.021-28.365 7.885-6.451 15.667-12.902 23.552-19.149l24.986-20.48c45.978-37.683 92.058-75.469 138.24-113.152 1.126-0.922 2.048-1.741 2.56-2.253-0.205-0.819-0.614-1.843-1.126-3.379l-8.909-24.781c-4.096-11.776-8.294-23.552-12.698-35.635-3.174-8.806-1.229-18.534 4.813-25.6 6.042-6.861 15.258-10.035 24.269-8.294l168.55 32.973c2.97 0.922 6.246 0.614 9.011-0.819 1.946-2.867 2.765-6.349 2.15-9.728-3.072-53.658-5.939-107.418-8.499-161.485-0.205-5.12-0.512-10.342-0.922-15.462-0.614-8.294-1.126-16.589-1.126-24.781 0.102-14.131 11.674-25.6 25.805-25.6h72.090c14.131 0 25.702 11.469 25.805 25.6 0 8.192-0.512 16.486-1.126 24.781-0.307 5.12-0.717 10.138-0.922 15.667-2.765 53.862-5.734 107.725-8.806 161.178-0.614 3.482 0.205 6.963 2.15 9.83 2.662 1.434 5.837 1.741 8.806 0.819l168.653-32.973c13.926-2.765 27.443 6.144 30.31 20.070 0.922 4.608 0.614 9.421-1.024 13.926-4.403 11.981-8.602 23.757-12.698 35.533l-8.909 24.781c-0.512 1.434-0.819 2.56-1.024 3.277 0.614 0.512 1.434 1.331 2.56 2.253 46.080 37.683 92.16 75.366 138.24 113.152l24.883 20.275c7.987 6.349 15.872 12.8 23.654 19.251 11.571 9.523 23.245 19.046 34.918 28.365 6.758 4.506 10.547 12.186 10.035 20.275-1.536 7.987-7.168 14.643-14.848 17.306-9.933 4.403-19.763 9.114-29.491 13.722l-11.469 5.427c-0.819 0.41-1.741 0.922-2.56 1.434 0.102 0.614 0.41 1.536 0.717 2.867l39.526 123.802c4.403 13.414-2.867 27.955-16.282 32.358-4.301 1.434-8.806 1.638-13.21 0.717-6.963-1.434-13.619-2.867-20.48-4.301l-16.896-3.584c-26.010-5.53-52.122-11.162-78.029-16.896-0.717-0.205-1.434-0.307-1.946-0.307-0.205 0.41-0.41 0.922-0.717 1.536-7.27 16.896-14.541 33.894-21.606 51.405-2.355 7.578-8.602 13.414-16.282 15.258-7.885 0.922-15.667-2.355-20.582-8.602-24.986-27.341-50.074-54.579-75.366-81.715l-20.48-22.221c1.536 8.397 3.072 16.896 4.71 25.395l41.574 214.118c2.662 13.824-6.349 27.341-20.275 30.003-6.144 1.229-12.39 0.102-17.818-3.072-29.696-17.408-55.808-32.563-62.566-36.454l-1.024-0.614c-0.205 0.307-0.41 0.717-0.614 1.126-16.077 31.744-46.080 91.75-72.806 145.101-6.144 12.595-21.299 17.92-33.894 11.776-5.12-2.458-9.318-6.656-11.776-11.776-26.624-53.248-56.73-113.254-72.704-144.998-0.205-0.512-0.41-0.819-0.614-1.229l-1.229 0.717c-6.656 3.789-32.563 18.944-62.259 36.352-12.186 7.168-27.853 3.072-35.021-9.216-3.174-5.325-4.198-11.674-3.072-17.818l41.574-214.118c1.741-8.397 3.277-16.896 4.71-25.395l-20.48 22.221c-25.19 27.238-50.381 54.374-75.366 81.92-6.451 9.318-19.251 11.674-28.57 5.222-4.198-2.867-7.168-7.27-8.294-12.186-6.963-17.306-14.234-34.099-21.504-51.2l-0.717-1.638c-0.614 0-1.126 0.205-1.741 0.307-26.010 5.734-52.122 11.366-78.131 16.896l-16.896 3.584c-6.861 1.434-13.619 2.97-20.48 4.301-14.234 2.97-27.75-5.837-30.72-19.661-0.922-4.403-0.717-9.011 0.717-13.21l39.629-123.904c0.307-0.922 0.512-1.946 0.717-2.867-0.819-0.512-1.536-0.922-2.458-1.331l-11.571-5.53c-9.83-4.71-19.558-9.421-29.594-13.722-7.68-2.662-13.312-9.318-14.848-17.306-0.614-8.090 3.174-15.77 9.933-20.275l0.205 0.205zM99.635 442.47l11.571 5.53c17.613 6.451 26.624 25.907 20.173 43.418-0.205 0.717-0.512 1.331-0.819 1.946l-35.123 110.285 6.042-1.331 17.101-3.584c25.907-5.53 52.019-11.162 78.029-16.896 17.101-5.427 35.43 4.096 40.96 21.197 4.915 11.366 9.83 22.835 14.746 34.509 20.787-22.733 41.677-45.363 62.669-67.994l22.63-24.474c12.288-13.517 33.28-14.541 46.797-2.253 8.909 8.090 12.8 20.48 9.933 32.256-1.638 9.114-3.379 18.227-5.12 27.341l-37.888 195.584c22.63-13.312 40.858-23.859 46.080-26.931 14.643-10.547 35.123-7.168 45.568 7.475 1.536 2.253 2.867 4.608 3.891 7.168 14.541 28.672 40.55 80.486 65.126 129.638 24.576-49.152 50.688-101.069 65.229-129.843 6.656-16.794 25.6-24.986 42.394-18.432 2.458 0.922 4.71 2.253 6.861 3.686 5.427 3.072 23.654 13.619 46.285 26.931l-37.99-195.482c-1.741-9.114-3.482-18.227-5.12-26.931-4.506-17.818 6.349-35.84 24.166-40.243 12.39-3.072 25.395 1.126 33.587 10.957l21.606 23.45c20.89 22.528 41.677 45.056 62.771 67.994 4.813-11.571 9.728-23.040 14.746-34.509 5.53-17.203 23.962-26.624 41.165-21.094 25.907 5.734 52.019 11.366 77.824 16.896l17.101 3.686 6.042 1.331-35.123-109.978c-7.475-17.203 0.307-37.171 17.408-44.646 0.717-0.307 1.434-0.614 2.048-0.819l11.469-5.427 12.698-6.042c-6.758-5.53-13.517-10.957-20.275-16.486-7.782-6.349-15.565-12.698-23.552-19.149l-24.883-20.48c-45.978-37.683-92.058-75.366-138.138-113.050-14.746-9.011-20.070-27.955-12.186-43.315 1.536-4.198 2.97-8.397 4.506-12.698l4.301-11.981c2.56-7.373 5.12-14.746 7.782-22.016l-154.317 30.106c-22.016 5.837-44.544-7.27-50.381-29.286-1.434-5.427-1.741-11.162-0.922-16.691 3.072-53.555 5.939-107.315 8.499-160.87 0.205-5.53 0.614-11.059 1.024-16.589 0.307-4.71 0.614-9.318 0.819-13.926h-55.091c0.205 4.608 0.512 9.318 0.819 13.926 0.41 5.53 0.717 11.059 1.024 16.384 2.56 53.658 5.427 107.418 8.499 161.075 3.379 22.528-12.186 43.52-34.611 46.899-5.632 0.819-11.366 0.512-16.896-1.024l-154.112-30.106c2.662 7.373 5.222 14.746 7.782 21.914l4.301 12.083c1.536 4.198 3.072 8.397 4.506 12.493 7.987 15.36 2.662 34.406-12.083 43.418-46.080 37.683-92.16 75.366-138.24 113.152l-24.986 20.48c-7.885 6.349-15.667 12.698-23.45 19.149-6.656 5.53-13.312 10.957-20.275 16.486l12.698 6.042 0.307-0.307zM501.248 246.989c6.246-5.12 15.258-5.12 21.504 0l273.101 221.901c7.168 6.042 8.090 16.896 2.048 24.064-5.939 6.963-16.282 8.090-23.552 2.458l-245.248-199.27v425.062c0 9.421-7.68 17.101-17.101 17.101s-17.101-7.68-17.101-17.101v0-425.062l-245.248 199.27c-7.475 5.837-18.125 4.506-23.962-2.97-5.632-7.27-4.506-17.613 2.458-23.552l273.101-221.901z" />
<glyph unicode="&#xe910;" glyph-name="file" d="M993.894 580.198l-1.024 1.331c-9.421 9.318-24.883 9.318-34.304 0l-536.269-534.118c-38.81-38.502-90.317-59.699-145.101-59.699-0.205 0-0.41 0-0.614 0-54.886 0.205-106.701 21.402-145.92 59.699-38.707 39.014-59.904 90.726-59.699 145.715 0.307 54.784 21.504 106.598 59.699 145.715l536.371 531.354c55.706 53.453 144.486 51.61 197.939-4.096 0.922-1.024 1.843-1.946 3.174-3.379 27.75-25.088 44.032-59.392 45.875-96.768s-10.854-73.114-35.942-100.864c-0.922-1.024-1.843-2.048-2.765-2.97l-502.17-502.17c-26.829-24.986-68.915-24.986-95.437-0.307-24.986 26.829-24.986 68.915-0.102 95.539l340.582 340.582c4.506 4.608 6.963 10.752 6.963 17.306s-2.662 12.595-7.373 17.101c-9.523 9.318-24.474 9.318-33.997 0l-340.787-340.48c-21.094-22.835-32.051-52.429-30.822-83.456s14.438-59.699 37.171-80.794c44.237-40.96 113.664-40.96 158.003 0.102l502.272 502.272c72.397 73.216 71.68 191.693-1.536 264.090-1.946 1.946-3.994 3.891-5.632 5.325-68.301 77.107-186.675 84.173-263.782 15.77-2.048-1.843-4.096-3.686-6.144-5.734l-533.914-536.576c-48.128-48.128-74.547-112.128-74.547-180.122s26.522-131.994 74.65-180.122c49.664-49.664 114.893-74.445 180.122-74.445s130.458 24.883 180.122 74.547l534.323 534.323c8.704 10.035 8.909 24.986 0.614 35.328z" />
<glyph unicode="&#xe911;" glyph-name="flush-now" d="M660.992 794.726h33.178c0 36.454 29.594 66.048 66.048 66.048v33.178c-36.454 0-66.048 29.594-66.048 66.048h-33.178c0-36.454-29.594-66.048-66.048-66.048v-33.075c36.454 0 65.946-29.594 66.048-66.15zM677.581 905.318c15.36-0.102 27.853-12.595 27.75-27.955l0.102 0.102c0-15.462-12.493-27.853-27.955-27.853s-27.853 12.493-27.853 27.955c0.102 15.258 12.595 27.75 27.955 27.75zM368.408 475.974l22.229 22.229 23.387-23.387-22.229-22.229-23.387 23.387zM892.416 679.117h33.075c0 36.454 29.594 66.048 66.048 66.15v33.075c-36.454 0-66.048 29.594-66.048 66.048h-33.075c0-36.454-29.594-66.048-66.048-66.048v-33.075c36.352-0.102 65.946-29.696 66.048-66.15zM908.902 789.606c15.36-0.102 27.853-12.595 27.853-28.058l0.102 0.102c0-15.462-12.493-27.955-27.955-27.955s-27.955 12.493-27.955 27.955c0 15.462 12.493 27.955 27.955 27.955zM991.949 530.944c-21.402 21.094-50.483 32.563-80.486 31.744-45.363 0-102.4-23.859-169.472-70.554-26.214 5.632-53.146 6.656-79.667 3.174-2.662-0.41-5.325-0.922-7.885-1.331l-33.792 33.69c14.438 35.43 6.144 75.981-20.89 103.014l-31.437 31.334c5.734 0.307 11.366-0.922 16.384-3.584l109.158-69.734c31.949-18.022 72.602-6.758 90.624 25.19 17.715 31.949 6.144 72.090-25.805 89.805 0 0 0 0 0 0l-109.056 69.734c-24.576 13.824-52.429 21.094-80.589 21.197-35.942 0-70.963-11.878-99.533-33.792l-5.632 5.632c-16.896 16.794-39.526 26.624-63.386 27.443-36.147 93.594-141.312 140.186-234.803 104.038-93.594-36.147-140.186-141.21-104.038-234.803 18.432-47.718 56.218-85.504 103.936-103.936 0.717-15.462 5.12-30.618 12.902-44.032l-73.114 51.61c-11.366 8.499-25.088 13.005-39.322 13.005-20.787-0.102-40.243-9.83-52.838-26.419l-0.102-0.102c-21.811-29.184-15.872-70.554 13.312-92.467 0 0 0 0 0 0l98.304-69.632c50.074-37.376 119.501-34.509 166.298 6.758l37.683-37.683c17.818-17.92 41.984-27.955 67.277-27.853 12.288 0 24.576 2.253 36.045 6.758l34.202-34.202c-0.41-2.458-0.922-4.915-1.229-7.373-3.482-26.624-2.458-53.555 3.174-79.872-10.342-14.848-19.661-29.389-27.75-43.213-53.35-91.238-57.139-160.768-11.162-206.746 21.402-21.094 50.483-32.563 80.486-31.744 109.568 0 258.765 137.318 317.747 196.403l-0.205 0.205c58.778 57.344 110.387 121.651 153.498 191.59 53.453 91.238 57.139 160.768 11.162 206.746zM684.749 464.077c82.739 3.891 159.232-44.339 191.283-120.73-9.011-13.312-18.944-26.931-29.696-40.755l-161.587 161.485zM896.819 376.32c-12.902 24.166-30.106 45.773-50.688 63.898 45.568 24.883 70.246 26.726 76.186 20.685s3.891-33.587-25.498-84.582zM627.917 474.010l197.325-197.325c-17.306-20.582-36.147-41.37-56.32-62.157l-145.818 145.818-23.347-23.347 145.818-145.818c-21.606-20.992-42.496-39.936-62.157-56.422l-197.325 197.325 141.824 141.926zM496.23 275.046v0.102l161.178-161.178c-14.234-11.059-27.75-20.89-40.448-29.389-76.186 31.846-124.314 107.93-120.73 190.464zM583.885 63.795c-45.978-26.419-76.595-33.587-84.582-25.6-5.939 5.939-4.198 30.72 20.787 76.288v0.102c18.125-20.685 39.731-37.786 63.795-50.79zM576.614 607.334c11.674-11.571 18.33-27.443 18.227-43.93l0.102 0.102c0-2.97-0.205-6.042-0.717-9.011l-74.547 74.445 18.637 16.794 38.298-38.4zM410.317 759.91c11.571-2.458 22.118-8.294 30.515-16.589l4.608-4.608-33.997-33.997c2.662 18.33 2.253 36.966-1.126 55.194v0zM104.55 652.186c-42.291 70.246-19.763 161.485 50.483 203.878 47.411 28.57 106.701 28.365 153.907-0.41v0c69.939-42.598 92.16-133.939 49.459-203.878 0 0 0 0 0 0l-50.074-50.074c-70.246-42.394-161.485-19.763-203.776 50.483zM200.294 549.786c18.227-3.379 36.864-3.789 55.194-1.126l-33.997-33.997-4.608 4.608c-8.294 8.499-14.029 19.046-16.589 30.515zM397.107 365.568c-16.794-0.205-32.973 6.349-44.851 18.227l-38.195 38.093 16.896 18.432 74.24-74.24c-2.662-0.307-5.427-0.512-8.090-0.512zM462.848 355.533l-132.71 132.71-56.32-61.44c-18.534-18.432-43.622-28.672-69.734-28.57-21.504 0-42.394 6.963-59.597 19.763l-98.304 69.632c-14.336 11.059-17.101 31.539-6.349 45.978 11.162 14.131 31.539 17.101 46.285 6.656l98.406-69.632c13.517-8.499 31.027-7.168 43.008 3.379l101.581 101.581c22.221 14.234 41.165 33.178 55.398 55.398l92.262 92.262c24.576 24.678 57.958 38.502 92.774 38.4 22.323 0 44.237-5.734 63.693-16.486l109.056-69.734c8.090-4.198 14.029-11.571 16.589-20.275 2.458-8.499 1.434-17.51-2.867-25.19-9.216-15.565-28.979-21.299-45.056-12.902l-109.056 69.734 0.102 0.205c-25.498 14.746-57.754 10.547-78.541-10.342l-51.61-46.387 132.813-132.813-141.824-141.926zM804.557 156.058c-90.317-90.317-214.938-186.778-294.4-186.778-21.299-0.717-41.882 7.27-57.139 22.118-34.099 33.997-28.57 90.010 16.179 166.707 3.584 6.246 7.782 12.8 11.981 19.354 5.018-11.878 10.957-23.347 17.818-34.202-37.069-62.771-45.056-106.086-22.733-128.41 8.909-8.294 20.787-12.595 32.87-11.981 62.771 0 176.026 80.691 271.872 176.64 54.784 53.35 102.912 113.254 143.155 178.278 36.25 62.054 43.725 104.448 21.402 126.669s-65.638 14.438-128.307-22.63c-11.059 6.861-22.63 12.698-34.611 17.613 51.405 32.87 95.642 50.278 129.024 50.278 21.299 0.717 41.882-7.27 57.139-22.118h0.205c34.099-33.997 28.57-90.010-16.179-166.707-41.677-67.482-91.546-129.536-148.275-184.832zM347.136 728.678c0 63.898-51.814 115.712-115.712 115.712s-115.712-51.814-115.712-115.712c0-63.898 51.814-115.712 115.712-115.712 0 0 0 0 0 0 63.898-0.102 115.712 51.712 115.712 115.712zM231.322 646.042c-45.568 0-82.534 36.966-82.534 82.637 0 45.568 36.966 82.534 82.637 82.534 45.568 0 82.637-36.966 82.637-82.534 0 0 0-0.102 0-0.102v0.102c-0.102-45.67-37.069-82.637-82.739-82.637zM414.012 521.597l23.387 23.387 23.387-23.387-23.387-23.387-23.387 23.387zM214.835 266.138c-36.454 0-66.048 29.594-66.048 66.048h-33.075c0-36.454-29.594-66.048-66.048-66.048v-33.075c36.454 0 66.048-29.594 66.048-66.048h32.973c0 36.454 29.594 66.048 66.048 66.048v33.075zM132.301 221.594c-15.462 0-27.955 12.493-27.955 27.955s12.493 27.955 27.955 27.955c15.462 0 27.853-12.493 27.853-27.955 0 0 0-0.102 0-0.102l0.102 0.102c0-15.36-12.493-27.955-27.955-27.955zM460.7 568.264l23.387 23.387 23.387-23.387-23.387-23.387-23.387 23.387zM297.574 150.426h-32.973c-0.102-36.454-29.594-66.048-66.048-66.048v-33.075c36.454 0 66.048-29.594 66.048-66.048h33.075c0 36.454 29.594 66.048 66.048 66.048v32.973c-36.454 0.102-66.048 29.696-66.15 66.15zM281.088 39.936c0 0 0 0 0 0-15.462-0.102-27.955 12.39-28.058 27.75 0 0 0 0 0 0l0.102 0.102c0 15.462 12.493 27.955 27.955 27.955s27.955-12.493 27.955-27.955c0-15.36-12.493-27.853-27.955-27.853z" />
<glyph unicode="&#xe912;" glyph-name="folder" d="M896 832h-85.299v-213.299h-597.402v213.299h-85.299c-23.552 0-42.598-19.046-42.701-42.598 0 0 0-0.102 0-0.102v-810.598c0-23.552 19.046-42.598 42.598-42.701 0 0 0.102 0 0.102 0h768c23.552 0 42.598 19.046 42.701 42.598 0 0 0 0.102 0 0.102v810.598c0 23.552-19.046 42.598-42.598 42.701 0 0 0 0-0.102 0zM768 149.299h-512v85.402h512v-85.402zM768 362.598h-512v85.402h512v-85.402zM597.299 874.598c0 47.206-38.195 85.402-85.299 85.402s-85.299-38.195-85.402-85.299c0 0 0 0 0-0.102h-128v-170.598h426.701v170.598h-128z" />
<glyph unicode="&#xe913;" glyph-name="forward" d="M979.968 801.485c23.45 0 42.496-19.046 42.496-42.496v-621.875c0-23.45-19.046-42.496-42.496-42.496h-150.528c-23.45 0-42.496 19.046-42.496 42.496v621.773c0 23.45 19.046 42.496 42.496 42.496 0 0 0 0 0 0h150.528zM118.886 786.534l469.709-274.022c36.762-18.432 51.61-63.078 33.28-99.84-7.168-14.336-18.842-26.010-33.28-33.28l-469.709-273.92c-37.069-21.811-84.787-9.523-106.701 27.546-7.68 13.005-11.366 27.853-10.752 42.906v540.262c2.253 44.237 39.424 78.643 83.661 77.414 11.674 0 23.142-2.355 33.792-7.066v0z" />
<glyph unicode="&#xe914;" glyph-name="garden-status" d="M198.144 646.246h33.075v-66.048h-33.075v66.048zM62.771 576.512l23.347 23.347 46.694-46.694-23.347-23.347-46.694 46.694zM0 464.589h82.534v-33.075h-82.534v33.075zM62.771 319.693l46.694 46.694 23.347-23.347-46.694-46.694-23.347 23.347zM198.144 315.904h33.075v-66.048h-33.075v66.048zM1023.898 464.589h-35.226l15.872 23.859-27.443 18.33-28.16-42.189h-40.653v40.653l42.189 28.16-18.33 27.443-23.859-15.872v35.226h-33.075v-35.226l-23.859 15.872-18.33-27.443 42.189-28.16v-40.653h-40.653l-28.16 42.189-27.443-18.33 15.872-23.859h-35.226v-33.075h35.226l-15.872-23.859 27.443-18.33 28.16 42.189h40.653v-40.653l-42.189-28.16 18.33-27.443 23.859 15.872v-35.226h33.075v35.226l23.859-15.872 18.33 27.443-42.189 28.16v40.653h40.653l28.16-42.189 27.443 18.33-15.872 23.859h35.328l-0.102 33.075zM726.63 448c0 118.579-96.051 214.63-214.528 214.733-100.864 0-188.109-70.144-209.715-168.653-25.395 48.435-85.299 67.174-133.837 41.677-48.435-25.395-67.174-85.299-41.677-133.837 25.395-48.435 85.299-67.174 133.837-41.677 17.818 9.318 32.358 23.859 41.677 41.677 25.395-115.712 139.878-188.928 255.693-163.533 98.406 21.606 168.55 108.851 168.55 209.613v0zM214.733 381.952c-36.454 0-66.048 29.594-65.946 66.15 0 36.454 29.594 66.048 66.15 65.946 36.454 0 65.946-29.594 65.946-66.048-0.102-36.454-29.696-66.048-66.15-66.048zM462.234 332.288h99.328c-13.005-40.858-31.949-66.048-49.664-66.048s-36.557 25.19-49.664 66.048v0zM331.162 431.411h82.125c0.614-22.118 2.867-44.237 6.758-66.048h-69.632c-10.65 20.582-17.101 43.11-19.149 66.15v-0.102zM512 629.555c17.715 0 36.659-25.19 49.664-66.048h-99.328c13.005 40.96 31.949 66.15 49.664 66.15v-0.102zM570.061 530.432c4.301-21.811 6.861-43.827 7.578-66.048h-131.482c0.717 22.221 3.277 44.237 7.578 66.048h116.326zM692.736 464.384h-82.125c-0.614 22.118-2.867 44.237-6.758 66.048h69.632c10.65-20.582 17.203-43.008 19.251-66.048v0zM692.736 431.309c-2.15-23.040-8.602-45.466-19.251-66.048h-69.632c3.891 21.811 6.144 43.93 6.758 66.048h82.125zM413.184 464.384h-82.125c2.15 23.040 8.602 45.466 19.251 66.048h69.632c-3.891-21.811-6.144-43.827-6.758-65.843v-0.205zM446.259 431.309h131.482c-0.717-22.221-3.277-44.237-7.578-66.048h-116.326c-4.301 21.811-6.861 43.93-7.578 66.048v0zM573.338 277.094c10.035 17.306 17.715 35.84 22.938 55.194h55.706c-20.89-24.986-48.026-44.032-78.643-54.989v-0.205zM651.981 563.405h-55.706c-5.222 19.354-12.902 37.888-22.938 55.194 30.72-10.957 57.856-30.003 78.746-54.989v-0.205zM450.662 618.906c-10.035-17.306-17.715-35.84-22.938-55.194h-55.808c20.787 25.088 48.026 44.134 78.746 55.194zM371.917 332.288h55.706c5.222-19.354 12.902-37.888 22.938-55.194-30.72 11.059-57.856 30.106-78.643 55.194zM396.39 728.781h231.219c45.568-0.205 82.739 36.659 82.842 82.227s-36.659 82.739-82.227 82.842c-3.789 0-7.578-0.205-11.366-0.717-27.034 57.958-95.846 83.046-153.702 56.013-24.678-11.469-44.544-31.334-56.013-56.013-45.158 6.144-86.733-25.6-92.877-70.758s25.6-86.733 70.758-92.877c3.789-0.512 7.578-0.717 11.366-0.717v0zM396.39 860.877c5.325-0.102 10.65-1.024 15.667-2.867l16.077-5.427 5.018 16.179c13.517 43.52 59.699 67.994 103.322 54.477 26.010-8.090 46.387-28.467 54.477-54.477l5.018-16.179 16.077 5.427c5.018 1.843 10.342 2.765 15.667 2.867 27.341 0 49.562-22.221 49.562-49.562s-22.221-49.562-49.562-49.562v0h-231.322c-27.341 0-49.562 22.221-49.562 49.562s22.118 49.562 49.562 49.562v0zM528.589 45.773v5.939c-0.102 82.125-66.662 148.582-148.685 148.685h-16.486v-115.61c0.102-75.674 56.934-139.162 132.096-147.661v-1.024h148.582c82.022 0.102 148.582 66.56 148.685 148.685v16.486h-148.685c-44.954-0.102-87.347-20.48-115.507-55.501zM396.39 84.685v81.408c56.832-8.294 99.021-57.037 99.123-114.483v-81.408c-56.832 8.397-99.021 57.037-99.123 114.483zM644.096-30.925h-114.483c8.294 56.832 57.037 99.021 114.483 99.123h114.483c-8.294-56.832-57.037-99.021-114.483-99.123v0zM289.69 815.514l-17.101 28.262c-81.203-49.050-145.306-121.958-183.706-208.691l30.31-13.517c35.635 80.589 95.13 148.275 170.598 193.843l-0.102 0.102zM119.091 274.432l-30.31-13.517c49.152-110.080 139.059-196.915 250.778-242.278l12.288 30.618c-103.731 42.189-187.085 122.88-232.755 225.178zM798.208 128.102l22.016-24.576c53.248 47.718 94.822 107.008 121.344 173.363l-30.618 12.288c-24.678-61.645-63.283-116.736-112.742-161.075zM910.95 607.027l30.618 12.288c-37.171 92.57-103.117 170.803-188.109 223.13l-17.306-28.16c78.95-48.64 140.186-121.242 174.797-207.258z" />
<glyph unicode="&#xe915;" glyph-name="gardens" d="M1006.899-29.798h-119.501v51.712c12.083 0.717 23.962 2.662 35.635 5.632 23.142 5.222 44.442 16.589 61.542 32.973 27.238 32.051 41.165 73.318 39.117 115.302-0.307 8.704-7.27 15.77-16.077 16.179-41.984 2.15-83.149-11.878-115.2-39.117-9.114-9.216-16.589-19.968-22.221-31.642-5.632 11.674-13.107 22.426-22.221 31.642-32.051 27.238-73.216 41.165-115.2 39.117-8.704-0.41-15.667-7.373-16.077-16.077 0-0.512-0.205-2.56-0.205-5.837-1.024-40.141 12.902-79.258 39.219-109.67 26.829-23.859 61.235-37.581 97.178-38.605v-51.712h-323.789v51.712c12.083 0.717 23.962 2.662 35.635 5.632 23.142 5.222 44.442 16.691 61.542 33.075 27.136 32.051 41.165 73.216 39.117 115.2-0.307 8.704-7.27 15.77-16.077 16.179-41.984 2.15-83.149-11.878-115.2-39.117-9.114-9.216-16.589-19.968-22.221-31.642-5.632 11.674-13.107 22.426-22.221 31.642-32.051 27.238-73.216 41.165-115.2 39.117-8.704-0.41-15.667-7.373-16.077-16.077 0-0.512-0.205-2.56-0.205-5.837-1.024-40.141 12.902-79.258 39.219-109.67 26.829-23.962 61.338-37.683 97.28-38.707v-51.712h-323.994v51.814c12.083 0.717 23.962 2.662 35.635 5.632 23.142 5.222 44.442 16.589 61.645 32.973 27.136 32.154 41.062 73.318 38.912 115.302-0.307 8.704-7.168 15.667-15.872 16.179-41.984 2.15-83.149-11.878-115.2-39.117-9.114-9.216-16.589-19.968-22.221-31.642-5.632 11.674-13.107 22.426-22.221 31.642-32.051 27.238-73.216 41.165-115.2 39.117-8.704-0.41-15.667-7.373-16.077-16.077 0-0.512-0.205-2.56-0.205-5.837-1.024-40.141 12.902-79.258 39.219-109.67 26.829-23.962 61.338-37.683 97.28-38.707v-51.712h-119.296c-9.421 0-17.101-7.68-17.101-17.101s7.68-17.101 17.101-17.101h989.798c9.421 0 17.101 7.68 17.101 17.101 0 9.83-7.68 17.408-17.101 17.51v0zM887.398 362.701c0 9.421-7.68 17.101-17.101 17.101s-17.101-7.68-17.101-17.101v-17.101c0-9.421 7.68-17.101 17.101-17.101s17.101 7.68 17.101 17.101v17.101zM870.4 294.502c-9.421 0-17.101-7.68-17.101-17.101v0-17.101c0-9.421 7.68-17.101 17.101-17.101s17.101 7.68 17.101 17.101v0 17.101c-0.102 9.421-7.68 17.101-17.101 17.101v0zM800.358 340.992c7.168 0 13.619 4.506 16.077 11.264l5.837 15.974c3.277 8.806-1.229 18.637-10.138 21.914-8.806 3.277-18.637-1.229-21.914-10.138 0-0.102 0-0.102-0.102-0.205l-5.837-16.077c-3.174-8.806 1.331-18.637 10.24-21.914 1.946-0.512 3.891-0.922 5.837-0.819v0zM782.848 309.862c-8.806 3.277-18.637-1.331-21.914-10.138l-5.837-16.077c-3.277-8.806 1.331-18.637 10.138-21.914s18.637 1.331 21.914 10.138l5.837 15.974c3.277 8.806-1.229 18.637-10.035 21.914 0 0.205 0 0.205-0.102 0.102v0zM956.416 363.827l-5.837 16.077c-3.174 8.909-12.902 13.517-21.811 10.342s-13.517-12.902-10.342-21.811c0-0.102 0-0.102 0.102-0.205l5.837-15.974c3.174-8.909 12.902-13.517 21.811-10.342s13.517 12.902 10.342 21.811c0 0.102 0 0.102-0.102 0.102v0zM953.549 271.974c3.277-8.806 13.005-13.414 21.914-10.138 8.806 3.277 13.414 13.005 10.138 21.914l-5.837 16.077c-3.277 8.806-13.005 13.414-21.914 10.138-8.806-3.277-13.414-13.005-10.138-21.914v0l5.837-16.077zM529.101 362.701c0 9.421-7.578 17.101-16.998 17.101s-17.101-7.578-17.101-16.998c0 0 0 0 0 0v-17.101c0-9.421 7.68-17.101 17.101-16.998 9.421 0 16.998 7.68 16.998 16.998v16.998zM512 294.502c-9.421 0-17.101-7.68-17.101-17.101v0-17.101c0-9.421 7.68-17.101 17.101-17.101s17.101 7.68 17.101 17.101v0 17.101c0 9.421-7.68 17.101-17.101 17.101 0 0 0 0 0 0zM442.061 340.992c7.168 0 13.619 4.506 16.077 11.264l5.837 15.974c3.174 8.909-1.434 18.637-10.342 21.811-8.806 3.174-18.534-1.331-21.709-10.138l-5.837-16.077c-3.174-8.806 1.331-18.637 10.24-21.914 1.741-0.614 3.789-1.024 5.734-0.922v0zM424.448 309.862c-8.806 3.277-18.637-1.331-21.914-10.138l-5.837-16.077c-3.277-8.806 1.331-18.637 10.138-21.914s18.637 1.331 21.914 10.138l5.837 15.974c3.277 8.806-1.229 18.637-10.035 21.914 0 0.205 0 0.205-0.102 0.102v0zM598.118 363.827l-5.837 16.077c-3.277 8.806-13.107 13.312-21.914 10.138-8.806-3.277-13.312-12.902-10.138-21.709l5.837-15.974c3.277-8.806 13.107-13.312 21.914-10.138s13.312 12.902 10.138 21.606v0zM595.251 271.974c3.277-8.806 13.005-13.414 21.914-10.138 8.806 3.277 13.414 13.005 10.138 21.914l-5.837 16.077c-3.277 8.806-13.005 13.414-21.914 10.138-8.806-3.277-13.414-13.005-10.138-21.914v0l5.837-16.077zM170.701 362.701c0 9.421-7.68 17.101-17.101 17.101s-17.101-7.68-17.101-17.101v-17.101c0-9.421 7.68-17.101 17.101-17.101s17.101 7.68 17.101 17.101v0 17.101zM153.702 294.502c-9.421 0-17.101-7.68-17.101-17.101v0-17.101c0-9.421 7.68-17.101 17.101-17.101s17.101 7.68 17.101 17.101v0 17.101c-0.102 9.421-7.68 17.101-17.101 17.101v0zM83.661 340.992c7.168 0 13.619 4.506 16.077 11.264l5.837 15.974c3.174 8.909-1.331 18.739-10.24 21.914s-18.739-1.331-21.914-10.24l-5.837-16.077c-3.174-8.806 1.331-18.637 10.24-21.914 1.741-0.614 3.789-1.024 5.837-0.922v0zM66.15 309.862c-8.806 3.277-18.637-1.331-21.914-10.138l-5.837-16.077c-3.277-8.806 1.331-18.637 10.138-21.914s18.637 1.331 21.914 10.138v0l5.837 15.974c3.277 8.806-1.229 18.637-10.035 21.914 0 0.205-0.102 0.205-0.102 0.102v0zM239.718 363.827l-5.837 16.077c-3.277 8.806-13.107 13.312-21.914 10.138-8.806-3.277-13.312-12.902-10.138-21.709l5.837-15.974c3.277-8.806 13.107-13.312 21.914-10.138s13.312 12.902 10.138 21.606v0zM236.851 271.974c3.277-8.806 13.005-13.414 21.914-10.138s13.414 13.005 10.138 21.914v0l-5.837 16.077c-3.277 8.806-13.005 13.414-21.914 10.138-8.806-3.277-13.414-13.005-10.138-21.914v0l5.837-16.077zM452.915 778.445c-8.909-3.174-13.414-13.005-10.24-21.811 3.174-8.909 13.005-13.414 21.811-10.24 0.102 0 0.205 0.102 0.307 0.102 30.31 11.366 63.795 11.366 94.208 0 8.806-3.379 18.637 1.024 22.016 9.728 3.379 8.806-1.024 18.637-9.728 22.016-0.102 0-0.205 0.102-0.307 0.102-37.99 14.336-79.974 14.336-118.067 0.102zM614.093 815.411c9.421 0 17.101 7.68 17.101 17.101 0 6.349-3.584 12.186-9.216 15.155-69.018 35.635-150.938 35.635-219.853-0.102-8.397-4.301-11.674-14.643-7.373-23.040s14.643-11.674 23.040-7.373c59.085 30.618 129.331 30.618 188.416 0 2.458-1.229 5.12-1.843 7.885-1.741v0zM370.893 886.272c86.733 52.838 195.584 52.838 282.317 0 8.090-4.71 18.637-2.048 23.347 6.144 4.608 7.987 2.15 18.125-5.632 23.040-97.587 59.494-220.16 59.494-317.747 0-7.987-5.018-10.342-15.565-5.325-23.552 4.915-7.782 15.053-10.342 23.040-5.632zM68.301 669.901c-18.842-0.102-34.099-15.258-34.099-34.099v-51.2c0.102-18.842 15.258-34.099 34.099-34.099h68.198v-34.099h-85.299c-9.421 0-17.101-7.68-17.101-17.101 0 0 0 0 0 0 0-47.821 52.429-85.197 119.501-85.197s119.501 37.581 119.501 85.299c0 9.421-7.68 17.101-17.101 17.101v0h-85.299v33.997h324.301v-34.099h-85.299c-9.421 0-17.101-7.68-17.101-17.101v0c0-47.821 52.429-85.299 119.501-85.299s119.501 37.581 119.501 85.299c0 9.421-7.68 17.101-17.101 17.101 0 0 0 0 0 0h-85.299v34.099h324.301v-34.099h-85.299c-9.421 0-17.101-7.68-17.101-17.101 0 0 0 0 0 0 0-47.821 52.429-85.299 119.501-85.299s119.501 37.581 119.501 85.299c0 9.421-7.68 17.101-17.101 17.101 0 0 0 0 0 0h-85.606v34.099h68.301c18.842 0.102 34.099 15.258 34.099 34.099v51.2c-0.102 18.842-15.258 34.099-34.099 34.099h-183.603l-64.717 32.256c-2.355 1.229-5.018 1.843-7.68 1.843h-358.4c-2.15 0-4.301-0.41-6.349-1.229l-82.227-32.973h-184.422zM17.101 806.502h119.501v-34.099h-17.101c-9.421 0-17.101-7.68-17.101-17.101v-51.2h102.4v51.2c0 9.421-7.68 17.101-17.101 17.101h-17.101v34.202h119.296c9.421 0 17.101 7.68 17.101 17.101s-7.68 17.101-17.101 17.101v0h-119.194v16.794c0 9.421-7.68 17.101-17.101 17.101s-17.101-7.68-17.101-17.101v-17.101h-119.398c-9.421 0-17.101-7.68-17.101-17.101 0.102-9.318 7.68-16.896 17.101-16.896zM733.798 806.502h119.501v-34.099h-17.101c-9.421 0-17.101-7.68-17.101-17.101v0-51.2h102.4v51.2c0 9.421-7.68 17.101-17.101 17.101v0h-17.101v34.202h119.296c9.421 0 17.101 7.68 17.101 17.101s-7.68 17.101-17.101 17.101h-119.194v16.794c0 9.421-7.68 17.101-17.101 17.101s-17.101-7.68-17.101-17.101v-17.101h-119.398c-9.421 0-17.101-7.68-17.101-17.101 0.102-9.318 7.68-16.896 17.101-16.896z" />
<glyph unicode="&#xe916;" glyph-name="goal" d="M1024 828.314l-153.6-21.914 21.914 153.6-116.838-116.838c-226.816 154.112-535.552 95.13-689.664-131.686s-95.13-535.552 131.686-689.562 535.552-95.13 689.562 131.686c114.381 168.346 114.381 389.53 0 557.978l116.941 116.736zM781.722 147.149c-157.594-157.594-412.979-157.594-570.573 0s-157.594 412.979 0 570.573c144.691 144.896 375.194 158.208 535.654 31.027l-110.899-111.002c-113.459 77.005-267.878 47.514-344.883-65.843s-47.514-267.878 65.843-344.883 267.878-47.514 344.883 65.843c57.242 84.173 57.242 194.765 0 279.040l111.002 111.002c127.283-160.563 113.869-390.963-31.027-535.757v0zM475.955 411.955c18.125-18.125 47.616-18.125 65.843 0l92.262 92.262c39.731-76.083 10.24-169.882-65.843-209.613s-169.882-10.24-209.613 65.843c-39.731 76.083-10.24 169.882 65.843 209.613 45.056 23.552 98.714 23.552 143.77 0l-92.262-92.16c-18.227-18.33-18.227-47.718 0-65.946-0.102 0-0.102 0 0 0z" />
<glyph unicode="&#xe917;" glyph-name="graph-line" d="M755.098 706.765c-10.138 10.342-9.933 26.931 0.41 36.966 4.915 4.813 11.571 7.475 18.432 7.475h224.461c13.926 0.307 25.395-10.752 25.6-24.678 0-0.512 0-1.024 0-1.536v-224.973c-0.102-14.438-11.981-26.010-26.317-25.907-6.758 0.102-13.312 2.765-18.125 7.578l-75.366 75.366-292.454-291.84c-20.275-20.378-53.248-20.48-73.626-0.102 0 0-0.102 0.102-0.102 0.102l-172.237 172.134-276.685-277.299c-20.378-20.378-53.453-20.378-73.83 0s-20.378 53.453 0 73.83v0l313.549 314.47c20.275 20.378 53.248 20.48 73.626 0.102 0 0 0.102-0.102 0.102-0.102l172.134-172.134 255.283 255.283-75.366 75.366 0.512-0.102z" />
<glyph unicode="&#xe918;" glyph-name="greenhouse" d="M901.837-30.822v0h-64.717c-75.674 64.614-186.88 102.81-308.224 105.984v97.894l76.39 76.39c13.926-2.56 28.16-3.891 42.291-3.891 67.584 0.614 132.301 27.853 179.917 75.878 61.338 60.109 87.757 147.354 70.144 231.322-1.434 6.246-6.246 11.059-12.493 12.493-138.957 27.648-274.022-62.669-301.67-201.626-5.939-29.901-6.554-60.621-1.638-90.726l-52.941-52.941v306.074l49.869 49.869c9.626-1.638 19.354-2.458 29.082-2.458 50.381 0.41 98.509 20.685 133.939 56.422 45.67 44.749 65.331 109.773 52.122 172.339-1.434 6.246-6.246 11.059-12.493 12.493-103.424 20.685-203.981-46.49-224.666-149.914-4.301-21.606-4.813-43.725-1.638-65.434l-26.317-26.317v32.154c0.102 50.893-19.866 99.738-55.706 135.885 15.565 104.346-56.525 201.421-160.87 216.883-21.709 3.174-43.827 2.662-65.331-1.638-6.246-1.434-11.059-6.246-12.493-12.493-13.107-62.566 6.554-127.488 52.122-172.339 35.43-35.738 83.558-56.013 133.939-56.422 9.83 0 19.558 0.819 29.286 2.458 29.594-29.901 46.080-70.349 46.080-112.333v-243.405l-52.941 52.941c22.528 139.878-72.704 271.565-212.582 293.99-30.106 4.813-60.826 4.301-90.726-1.638-6.246-1.434-11.059-6.246-12.493-12.493-17.613-84.070 8.806-171.213 70.144-231.322 47.616-48.026 112.333-75.264 179.917-75.878 14.234 0 28.365 1.331 42.291 3.891l76.39-76.39v-239.514c-121.344-3.174-232.55-41.37-308.224-105.984h-64.717c-9.114 0.102-16.691-7.27-16.691-16.486-0.102-9.114 7.27-16.691 16.486-16.691 0.102 0 0.205 0 0.205 0h778.854c9.114 0.307 16.384 7.885 16.077 17.101-0.205 8.499-7.27 15.565-15.974 15.872zM677.274 471.654v0c49.459 50.483 120.218 74.035 190.054 63.283 10.752-69.837-12.902-140.595-63.283-190.054-44.442-44.954-105.882-68.915-169.062-65.741l154.931 154.931c6.451 6.451 6.451 16.998 0 23.45v0c-6.451 6.451-16.998 6.451-23.45 0v0l-154.931-154.931c-3.174 63.181 20.787 124.621 65.741 169.062zM632.73 739.021h-0.102c34.099 34.816 82.637 51.507 130.97 45.261 6.349-48.333-10.445-96.768-45.158-130.97-28.774-29.184-67.891-45.875-108.851-46.797l95.437 95.437c6.451 6.451 6.451 16.998 0 23.45v0c-6.451 6.451-16.998 6.451-23.45 0v0l-95.539-95.539c0.717 41.165 17.51 80.282 46.694 109.158zM346.931 867.123c-6.451 6.451-16.998 6.451-23.45 0v0c-6.451-6.451-6.451-16.998 0-23.45v0l95.539-95.539c-41.062 0.819-80.179 17.613-109.056 46.797-34.714 34.202-51.507 82.637-45.158 130.97h-0.102c48.333 6.246 96.768-10.445 130.97-45.261 29.082-28.877 45.875-67.891 46.694-108.851l-95.437 95.334zM234.701 575.693v0l154.931-154.931c-63.181-3.174-124.621 20.787-169.062 65.741h-0.205c-50.483 49.459-74.035 120.218-63.283 190.054 69.939 10.752 140.698-12.8 190.157-63.283 44.954-44.442 68.915-105.882 65.741-169.062l-154.829 154.931c-6.451 6.451-16.998 6.451-23.45 0v0c-6.451-6.451-6.451-16.998 0-23.45zM242.893-30.925c81.101 49.254 174.592 74.547 269.517 73.011h-0.102c94.822 1.536 188.211-23.757 269.312-73.011h-538.726z" />
<glyph unicode="&#xe919;" glyph-name="happy-practice" d="M64.614 446.362h-41.779c-12.595 0-22.835-10.24-22.835-22.835s10.24-22.835 22.835-22.835h41.779c12.595 0 22.835 10.24 22.835 22.835 0 0 0 0.102 0 0.102 0 12.595-10.24 22.733-22.835 22.733zM460.083 50.278h0.205zM179.61 723.661c8.909-8.909 23.45-8.909 32.358 0s8.909 23.45 0 32.358l-29.286 29.286c-8.909 8.909-23.45 8.909-32.358 0s-8.909-23.45 0-32.358l29.286-29.286zM828.416 717.005v0c6.042 0 11.878 2.355 16.179 6.656l29.286 29.286c8.909 8.909 8.909 23.45 0 32.358s-23.45 8.909-32.358 0l-29.286-29.286c-8.909-8.909-8.909-23.347 0-32.256 4.301-4.301 10.138-6.758 16.179-6.758zM460.186 50.278c-12.595-0.102-22.733-10.24-22.733-22.835v-21.197h-164.659c-29.798 0.819-53.35 25.6-52.634 55.398 0.717 28.774 23.859 51.814 52.634 52.634h163.43c12.595 0 22.835 10.24 22.835 22.835s-10.24 22.835-22.835 22.835h-163.43c-55.091 0-99.738-44.646-99.738-99.738s44.646-99.738 99.738-99.738h187.392c12.595 0 22.835 10.24 22.835 22.835v44.032c-0.102 12.595-10.24 22.835-22.835 22.938zM512 847.974v0c12.698 0 22.938 10.24 22.938 22.835v41.779c0 12.595-10.24 22.835-22.835 22.835s-22.835-10.24-22.835-22.835v-41.677c-0.102-12.595 10.138-22.835 22.733-22.938zM713.421 731.955c-60.109 38.502-130.048 58.982-201.421 58.982-206.336 0-373.453-167.322-373.453-373.555 0-71.373 20.48-141.312 58.982-201.421 6.861-10.65 20.992-13.722 31.539-6.861 10.65 6.861 13.722 20.992 6.861 31.539-97.587 152.371-53.248 355.123 99.226 452.71 152.371 97.587 355.123 53.248 452.71-99.226 69.018-107.725 69.018-245.76 0-353.587-6.861-10.65-3.789-24.781 6.861-31.539 10.65-6.861 24.781-3.789 31.539 6.861 111.411 173.773 60.826 404.787-112.845 516.096zM1001.165 446.362h-41.677c-12.595 0-22.835-10.24-22.835-22.835s10.24-22.835 22.835-22.835h41.677c12.595 0 22.835 10.24 22.835 22.835s-10.24 22.835-22.835 22.835zM519.782 460.902c34.304 10.957 61.133 37.888 72.192 72.192 18.739 58.573-13.517 121.344-72.192 140.083-4.506 1.434-9.318 1.434-13.824 0-34.406-10.957-61.338-37.888-72.294-72.294-18.637-58.573 13.722-121.242 72.294-139.878v0c4.403-1.638 9.216-1.638 13.824-0.102zM479.846 540.058c-14.848 33.075-0.102 71.987 32.973 86.835 14.643-6.554 26.419-18.33 32.973-32.973 14.848-33.075 0.102-71.987-32.973-86.835-14.643 6.554-26.419 18.33-32.973 32.973zM753.152 160.051h-163.328c-12.595 0-22.835-10.24-22.835-22.835s10.24-22.835 22.835-22.835h163.328c29.798-0.819 53.35-25.6 52.634-55.398-0.717-28.774-23.859-51.814-52.634-52.634h-164.454v21.197c0 12.595-10.24 22.835-22.835 22.835s-22.835-10.24-22.835-22.835v-44.032c0-12.595 10.24-22.835 22.835-22.835h187.392c55.091 0 99.738 44.646 99.738 99.738s-44.749 99.635-99.84 99.635zM513.126 321.741c0 0-0.102 0-0.102 0-12.595 0-22.835-10.24-22.835-22.835v-161.69c0-12.595 10.24-22.835 22.835-22.835s22.835 10.24 22.835 22.835v161.587c0 12.595-10.138 22.835-22.733 22.938zM305.050 223.027c-1.126-12.595 8.192-23.654 20.685-24.781 0.717-0.102 1.331-0.102 2.048-0.102h44.032c12.595 0 22.835 10.24 22.835 22.835s-10.24 22.835-22.835 22.835h-16.179c27.75 65.946 87.142 113.254 157.594 125.542 70.451-12.288 129.946-59.597 157.594-125.542h-16.384c-12.595 0-22.835-10.24-22.835-22.835s10.24-22.835 22.835-22.835h44.032c12.595 0 22.835 10.24 22.835 22.835 0 0.717 0 1.331-0.102 2.048-5.12 47.411-28.058 91.034-64.102 122.163-39.424 34.816-87.142 58.88-138.65 69.939-3.379 0.819-6.861 0.819-10.342 0-51.405-11.059-99.226-35.123-138.65-69.939-36.147-31.027-59.187-74.752-64.41-122.163z" />
<glyph unicode="&#xe91a;" glyph-name="happy-program" d="M884.941 267.571c-55.398 29.901-95.027 82.534-108.339 144.179l-5.12 23.962c-17.715 82.534-85.914 144.794-169.677 154.829 21.811 22.938 33.997 53.35 33.997 84.992v29.491c0 67.891-54.989 122.88-122.88 122.88s-122.88-54.989-122.88-122.88v-29.594c0-31.642 12.186-62.054 33.997-84.992-57.958-6.861-109.875-39.014-141.824-87.962-6.042-9.114-3.482-21.504 5.632-27.443 9.114-6.042 21.504-3.482 27.443 5.632 24.678 37.786 64.307 63.181 108.954 69.734l71.68-122.88c5.427-9.421 17.408-12.8 26.829-7.373 3.072 1.741 5.632 4.301 7.373 7.373l71.373 122.88c65.126-9.728 117.453-58.778 131.277-123.187l5.12-23.962c15.77-72.909 62.669-135.27 128.307-170.701 12.083-6.451 17.715-20.582 13.517-33.485-2.56-7.782-8.397-14.029-16.077-16.998-7.68-3.072-16.384-2.56-23.654 1.434-18.227 9.83-35.533 21.504-51.405 34.714-53.35 44.442-90.214 105.472-104.755 173.363l-5.12 23.962c-1.126 10.854-10.854 18.637-21.709 17.51s-18.637-10.854-17.51-21.709v-202.854l-126.464-58.061-126.771 57.958v202.752c1.126 10.854-6.656 20.582-17.51 21.709s-20.582-6.656-21.709-17.51l-5.12-23.962c-19.149-88.883-76.288-164.864-156.262-207.974-7.27-3.994-15.974-4.506-23.654-1.434-7.578 2.97-13.517 9.216-16.077 16.998-4.198 13.005 1.434 27.136 13.517 33.485 36.352 19.763 67.277 48.026 90.419 82.227 6.144 9.114 3.789 21.402-5.222 27.546s-21.402 3.789-27.546-5.222c-19.558-28.979-45.773-52.838-76.493-69.632-33.075-17.203-45.978-57.958-28.774-91.136 17.203-33.075 57.958-45.978 91.136-28.774 0.512 0.307 1.024 0.512 1.536 0.819-0.41-40.141 24.986-76.083 63.078-88.986l47.309-15.77c-19.251-35.328-6.246-79.565 29.082-98.816 17.818-9.728 38.912-11.571 58.163-5.018l110.694 37.274 110.694-37.274c38.298-12.595 79.667 8.192 92.262 46.49 6.246 19.046 4.506 39.731-5.018 57.344l47.309 15.77c26.624 8.909 47.821 29.491 57.446 55.91 3.891 10.547 5.837 21.811 5.734 32.973 32.87-17.613 73.83-5.222 91.546 27.648 17.408 33.178 5.018 74.138-27.853 91.75zM513.024 476.979l-43.827 75.162h87.654l-43.827-75.162zM596.173 704.922v-29.594h-0.102c0-45.978-37.171-83.354-83.251-83.558-45.978 0.102-83.251 37.478-83.251 83.558v29.491c0 45.978 37.171 83.251 83.149 83.354 45.978 0 83.251-37.171 83.354-83.149 0.102 0 0.102 0 0.102-0.102zM678.81 290.918c9.83-18.227 21.197-35.635 34.099-51.917-7.885-1.331-15.667-3.686-22.938-7.066l-11.162-5.12v64.102zM346.624 290.714v-64l-11.162 5.12c-7.27 3.379-15.053 5.734-22.938 7.066 12.8 16.282 24.269 33.587 34.099 51.814zM280.166 97.178c-27.75 9.421-42.496 39.526-33.075 67.277s39.526 42.496 67.277 33.075c1.536-0.512 3.072-1.126 4.608-1.843l146.022-66.97-117.76-54.067-67.072 22.528zM679.424 4.608c-2.355-18.125-19.046-30.925-37.171-28.57-2.15 0.307-4.198 0.717-6.246 1.434l-60.826 20.48 96.666 32.563c6.042-7.168 8.909-16.589 7.68-25.907h-0.102zM777.933 129.126v0c-5.53-15.053-17.51-26.829-32.768-31.949l-355.84-119.808c-17.408-5.734-36.25 3.789-41.882 21.197-5.222 15.974 2.355 33.485 17.613 40.55l341.402 156.57c26.624 12.083 58.061 0.307 70.144-26.317 5.632-12.698 6.144-27.136 1.331-40.243zM108.442 369.971v109.363c46.285 11.366 74.65 58.061 63.283 104.448-11.366 46.285-58.061 74.65-104.448 63.283-46.285-11.366-74.65-58.061-63.283-104.448 7.68-31.232 32.051-55.603 63.283-63.283v-109.363c-0.512-11.366 8.294-20.992 19.661-21.402 11.366-0.512 20.992 8.294 21.402 19.661 0.102 0.512 0.102 1.126 0.102 1.741zM87.859 517.939c-24.986 0-45.158 20.275-45.261 45.158v0c0 24.986 20.275 45.261 45.261 45.261s45.261-20.173 45.261-45.158c0-24.986-20.275-45.261-45.261-45.261zM238.080 788.173v-109.568c-0.512-11.366 8.294-20.992 19.661-21.402 11.366-0.512 20.992 8.294 21.402 19.661 0 0.614 0 1.229 0 1.843v109.568c46.285 11.366 74.65 58.061 63.283 104.448-11.366 46.285-58.061 74.65-104.448 63.283-46.285-11.366-74.65-58.061-63.283-104.448 7.68-31.334 32.154-55.706 63.386-63.386zM258.662 917.197c24.986 0 45.261-20.275 45.261-45.261s-20.275-45.261-45.261-45.261-45.261 20.275-45.261 45.261c0 24.986 20.275 45.261 45.261 45.261zM937.677 649.523c-47.718 0-86.323-38.605-86.323-86.323 0-39.731 27.136-74.445 65.843-83.866v-109.363c-0.512-11.366 8.294-20.992 19.661-21.402 11.366-0.512 20.992 8.294 21.402 19.661 0 0.614 0 1.229 0 1.843v109.261c38.605 9.523 65.741 44.134 65.741 83.866 0 47.616-38.605 86.323-86.323 86.323zM937.677 517.939v0c-24.986 0-45.261 20.173-45.261 45.158s20.275 45.261 45.261 45.261c24.986 0 45.261-20.275 45.261-45.261-0.102-24.883-20.275-45.158-45.261-45.158zM746.394 788.173v-109.568c-0.512-11.366 8.294-20.992 19.661-21.402 11.366-0.512 20.992 8.294 21.402 19.661 0 0.614 0 1.229 0 1.843v109.568c46.285 11.366 74.65 58.061 63.283 104.448-11.366 46.285-58.061 74.65-104.448 63.283-46.285-11.366-74.65-58.061-63.283-104.448 7.68-31.334 32.051-55.706 63.386-63.386zM766.874 917.197c24.986 0 45.261-20.275 45.261-45.261s-20.275-45.261-45.261-45.261c-24.986 0-45.261 20.275-45.261 45.261 0.102 24.986 20.378 45.261 45.261 45.261zM252.416 394.957c7.987-7.987 20.992-7.987 29.082 0 7.987 7.987 7.987 20.992 0 29.082-3.891 3.789-9.011 6.042-14.541 6.042-5.427 0-10.65-2.15-14.541-6.042-8.090-8.090-8.090-21.094 0-29.082z" />
<glyph unicode="&#xe91b;" glyph-name="happy-way" d="M427.725 560.538c0 0 0.102 0 0.102 0 22.938 0 41.472 18.637 41.472 41.574s-18.637 41.472-41.574 41.472c-22.938 0-41.472-18.637-41.472-41.574 0-22.835 18.534-41.472 41.472-41.472zM598.938 560.64c22.938 0 41.677 18.534 41.677 41.574-0.717 21.914-18.33 39.629-40.243 40.243-22.938 0.717-42.189-17.306-42.906-40.243 0-22.938 18.534-41.574 41.472-41.574zM733.798 482.509c-10.547 2.56-21.094-3.891-23.654-14.438-0.102-0.717-0.205-1.229-0.307-1.946-15.667-74.65-72.806-133.53-146.842-151.654-106.394-26.010-213.709 39.117-239.718 145.408 0 0 0 0 0 0-2.048 10.65-12.39 17.613-23.040 15.565-0.717-0.102-1.434-0.205-2.15-0.41-10.65-2.662-17.306-13.21-15.155-23.962 21.606-90.419 93.594-160.154 184.73-178.79 129.434-26.522 255.898 56.934 282.419 186.368 1.434 10.854-5.632 21.197-16.282 23.859zM1016.013 538.624h-0.102c-2.253 12.595-5.018 24.986-8.192 37.171-1.024 4.198-2.15 8.294-3.277 12.39-2.253 8.090-4.813 16.077-7.475 23.859-3.891 11.981-8.397 23.654-13.312 35.123v0.102c-1.638 3.891-3.277 7.578-5.018 11.366-3.379 7.578-7.066 15.155-10.752 22.426-1.946 3.789-3.891 7.373-5.837 11.059-31.437 57.856-73.728 109.056-124.518 150.938-0.102-0.102-0.102-0.102-0.102 0-15.77 13.107-32.256 25.19-49.562 36.25-0.102-0.102-0.102 0-0.102 0-6.963 4.506-14.029 8.704-20.992 12.8-18.022 10.24-36.557 19.456-55.603 27.648-0.102-0.102-0.102-0.102-0.102 0-11.469 4.915-23.142 9.421-35.123 13.312-7.885 2.765-15.77 5.222-23.859 7.475-4.096 1.126-8.294 2.253-12.39 3.277-12.186 3.174-24.576 5.939-37.171 8.192-59.904 10.65-121.242 10.65-181.146 0-12.595-2.253-24.986-5.018-37.171-8.192-4.096-1.024-8.294-2.15-12.39-3.277-8.090-2.355-16.077-4.813-23.859-7.475-11.981-3.891-23.654-8.397-35.123-13.312 0-0.102 0-0.102-0.102 0-19.046-8.090-37.581-17.306-55.603-27.648-7.066-4.096-14.131-8.294-20.992-12.8 0 0 0-0.102-0.102 0-17.306-11.059-33.792-23.142-49.562-36.25 0-0.102 0-0.102-0.102 0-50.79-41.882-92.979-93.082-124.416-150.938-1.946-3.686-3.891-7.27-5.837-11.059-3.789-7.373-7.373-14.746-10.752-22.426-1.741-3.789-3.379-7.475-5.018-11.366v-0.102c-4.915-11.469-9.421-23.245-13.312-35.123-2.765-7.885-5.12-15.77-7.475-23.859-1.126-4.096-2.253-8.192-3.277-12.39-3.174-12.186-5.939-24.576-8.192-37.171-10.65-59.904-10.65-121.242 0-181.146 2.253-12.595 5.018-24.986 8.192-37.171 1.024-4.096 2.15-8.294 3.277-12.39 1.434-5.12 2.97-10.138 4.506-15.155 4.71-14.848 10.138-29.491 16.282-43.827 0.102 0 0.102 0 0-0.102 1.638-3.891 3.277-7.578 5.018-11.366 3.379-7.68 7.066-15.053 10.752-22.528 1.946-3.789 3.891-7.373 5.837-11.059 47.309-87.142 118.886-158.72 206.029-206.131 3.686-1.946 7.27-3.891 11.059-5.837 7.373-3.789 14.746-7.373 22.528-10.752 3.789-1.741 7.475-3.379 11.366-5.018h0.102c14.336-6.144 28.979-11.571 43.827-16.282 5.018-1.638 10.035-3.072 15.155-4.506 4.096-1.126 8.294-2.253 12.39-3.277 12.186-3.174 24.576-5.939 37.171-8.192 59.904-10.65 121.242-10.65 181.146 0 12.595 2.253 24.986 5.018 37.171 8.192 4.096 1.024 8.294 2.15 12.39 3.277 5.12 1.536 10.138 2.97 15.155 4.506 14.848 4.71 29.491 10.138 43.827 16.282h0.102c3.891 1.638 7.578 3.277 11.366 5.018 7.578 3.379 15.155 7.066 22.426 10.752 3.789 1.946 7.373 3.891 11.059 5.837 87.142 47.411 158.72 118.886 206.131 206.131 1.946 3.686 3.891 7.27 5.837 11.059 3.789 7.27 7.373 14.746 10.752 22.528 1.741 3.789 3.379 7.475 5.018 11.366-0.102 0.102-0.102 0.102 0 0.102 6.144 14.336 11.571 28.979 16.282 43.827 1.638 5.018 3.072 10.035 4.608 15.155 1.126 4.096 2.253 8.294 3.277 12.39 3.174 12.186 5.939 24.576 8.192 37.171 10.342 59.904 10.342 121.242-0.307 181.146zM511.898-18.227v0c-257.536-0.102-466.227 208.691-466.227 466.227s208.794 466.33 466.33 466.33c257.536 0 466.33-208.794 466.33-466.33-0.41-257.331-208.998-465.818-466.432-466.227z" />
<glyph unicode="&#xe91c;" glyph-name="headphones" d="M512 960c-267.878 0-485.069-217.19-485.069-485.069v-377.242c0.102-89.293 72.397-161.587 161.69-161.69h161.69v431.104h-215.552v107.827c0 208.384 168.858 377.242 377.242 377.242s377.242-168.858 377.242-377.242v-107.827h-215.552v-431.104h161.69c89.293 0.102 161.587 72.397 161.69 161.69v377.242c0 267.878-217.19 485.069-485.069 485.069z" />
<glyph unicode="&#xe91d;" glyph-name="help" d="M979.251 448.102c0 258.15-209.203 467.354-467.354 467.354s-467.354-209.203-467.354-467.354 209.203-467.354 467.354-467.354c258.048 0.307 467.046 209.408 467.354 467.354zM747.213 514.867h181.965c7.68-44.134 7.68-89.395 0-133.53h-181.965c12.698 43.622 12.698 89.907 0 133.53zM511.898 247.603c-110.592 0-200.294 89.702-200.294 200.294s89.702 200.294 200.294 200.294 200.294-89.702 200.294-200.294c-0.205-110.49-89.805-199.987-200.294-200.090v-0.205zM578.662 865.178v-181.965c-43.622 12.698-89.907 12.698-133.53 0v181.965c44.134 7.68 89.395 7.68 133.53 0zM276.582 381.338h-181.76c-7.782 44.134-7.782 89.395 0 133.53h181.965c-12.698-43.622-12.698-89.907 0-133.53h-0.205zM445.133 31.027v182.067c43.622-12.698 89.907-12.698 133.53 0v-181.965c-44.134-7.782-89.293-7.782-133.53-0.102zM22.221 670.72c12.186 0 22.221 9.83 22.323 22.016 0 123.085 99.738 222.822 222.822 222.822 12.288 0 22.221 9.933 22.221 22.221s-9.933 22.221-22.221 22.221c-147.661 0-267.366-119.706-267.366-267.366 0.102-12.186 10.035-21.914 22.221-21.914zM756.634 915.456c122.88-0.205 222.31-99.942 222.31-222.822 0-12.288 9.933-22.221 22.221-22.221s22.221 9.933 22.221 22.221c0.205 147.661-119.501 267.366-267.162 267.366v0c-12.288 0-22.221-9.933-22.221-22.221s9.933-22.221 22.221-22.221h0.41zM1001.779 225.587c-12.288 0-22.221-9.933-22.221-22.221-0.205-122.88-99.942-222.31-222.822-222.31-12.288 0-22.221-9.933-22.221-22.221s9.933-22.221 22.221-22.221c147.558-0.205 267.264 119.501 267.264 267.162v0c-0.205 12.083-10.138 21.811-22.221 21.811zM267.366-19.046c-122.88 0.102-222.413 99.738-222.515 222.515 0 12.288-9.933 22.221-22.221 22.221s-22.221-9.933-22.221-22.221v0c0-147.661 119.706-267.366 267.366-267.366 0 0 0 0 0 0 12.288 0 22.221 9.933 22.221 22.221s-9.933 22.221-22.221 22.221l-0.41 0.41z" />
<glyph unicode="&#xe91e;" glyph-name="info" d="M460.8 499.2h102.4v-307.2h-102.4v307.2zM512 960c-282.726 0-512-229.274-512-512s229.274-512 512-512 512 229.274 512 512v0c0.102 282.726-229.069 511.898-511.693 512-0.102 0-0.205 0-0.307 0zM512 38.4c-226.202 0-409.6 183.398-409.6 409.6s183.398 409.6 409.6 409.6 409.6-183.398 409.6-409.6v0c-0.307-226.099-183.501-409.293-409.6-409.6zM460.8 704h102.4v-102.4h-102.4v102.4z" />
<glyph unicode="&#xe91f;" glyph-name="less" d="M0 567.603h1024v-239.206h-1024v239.206z" />
<glyph unicode="&#xe920;" glyph-name="like-select" d="M943.954 811.694c-106.598 106.598-279.45 106.598-386.048 0 0 0 0 0 0 0-18.227-18.842-33.69-40.141-45.875-63.386-12.083 23.245-27.546 44.646-45.875 63.488-106.598 106.598-279.552 106.598-386.15 0s-106.598-279.552 0-386.15l432.026-421.376 431.923 421.274c106.598 106.496 106.701 279.142 0.307 385.843-0.102 0.102-0.205 0.205-0.307 0.307z" />
<glyph unicode="&#xe921;" glyph-name="like" d="M512.031 1.198c-5.939 0-11.878 2.253-16.486 6.656l-412.16 402.022c-53.862 53.862-83.456 125.133-83.456 201.011s29.594 147.251 83.251 200.909c110.797 110.797 290.918 110.797 401.715 0 9.933-10.24 18.944-20.992 27.136-32.461 8.090 11.264 17.101 22.016 26.829 32.051 111.206 111.002 291.328 110.899 401.92 0.307l0.307-0.307c53.555-53.658 83.046-125.030 82.944-200.806 0-75.776-29.594-146.944-83.251-200.499l-412.262-402.227c-4.608-4.506-10.547-6.656-16.486-6.656zM284.088 847.739c-60.723 0-121.446-23.040-167.629-69.222-44.851-44.851-69.427-104.346-69.427-167.629s24.576-122.778 69.427-167.526l395.571-385.843 395.674 385.946c44.544 44.442 69.222 103.936 69.222 167.219 0.102 63.181-24.576 122.778-69.222 167.424l16.384 16.896-16.589-16.589c-92.365 92.365-242.586 92.365-335.155 0-15.667-16.179-28.979-34.611-39.526-54.784-8.090-15.667-33.587-15.667-41.677 0-10.547 20.173-23.859 38.81-39.731 55.091-45.978 46.080-106.598 69.018-167.322 69.018z" />
<glyph unicode="&#xe922;" glyph-name="lock-2" d="M799.98 584.315h-71.885v164.25c-2.56 119.296-101.376 214.016-220.774 211.456-115.712-2.458-208.998-95.744-211.456-211.456v-164.25h-71.987c-66.15-0.205-119.706-53.76-119.91-119.91v-408.474c0.205-66.15 53.76-119.706 119.91-119.91h576.307c66.15 0.205 119.706 53.76 119.91 119.91v408.474c-0.205 66.15-53.862 119.808-120.115 119.91zM375.839 748.462c0 75.162 60.928 135.987 135.987 135.987s135.987-60.928 135.987-135.987v-164.25h-271.974v164.25zM839.813 55.828c-0.102-22.016-17.818-39.731-39.834-39.834h-576.307c-21.914 0-39.731 17.818-39.834 39.834v408.474c0.102 22.016 17.818 39.731 39.834 39.834h576.307c21.914 0 39.731-17.818 39.834-39.834v-408.474zM511.826 388.116c-40.858 0-73.933-33.178-73.933-74.035 0-24.986 12.698-48.333 33.587-61.952v-87.859c0-22.118 17.92-40.038 40.038-40.038s40.038 17.92 40.038 40.038v87.757c34.406 22.016 44.442 67.789 22.426 102.195-13.619 21.197-37.069 34.099-62.259 34.099l0.102-0.205z" />
<glyph unicode="&#xe923;" glyph-name="lock" d="M804.526 618.66h-48.742v97.587c0 134.656-109.158 243.814-243.814 243.814s-243.712-109.261-243.712-243.917v-97.587h-48.742c-53.76-0.205-97.382-43.725-97.485-97.485v-487.629c0.205-53.76 43.725-97.382 97.485-97.485h585.114c53.76 0.205 97.382 43.725 97.485 97.485v487.731c-0.205 53.76-43.725 97.28-97.587 97.485zM511.969 179.773c-53.862 0-97.485 43.622-97.485 97.485s43.622 97.485 97.485 97.485 97.485-43.622 97.485-97.485c-0.102-53.76-43.622-97.28-97.485-97.485zM663.214 618.66h-302.387v97.587c1.434 83.456 70.349 149.914 153.805 148.48 81.408-1.434 147.046-67.072 148.48-148.48v-97.587z" />
<glyph unicode="&#xe924;" glyph-name="logout" d="M341.402 191.939l-298.701 256 298.701 255.898v-213.197h383.795v-85.299h-383.795v-213.402zM896 874.639v-853.299h-256v-85.299h298.701c23.552 0 42.598 19.149 42.701 42.701v938.701c0 23.552-19.149 42.598-42.701 42.701h-298.701v-85.299l256-0.205z" />
<glyph unicode="&#xe925;" glyph-name="loup" d="M717.722 135.475c-210.022-126.669-483.021-59.085-609.69 151.040s-59.085 483.021 151.040 609.587 483.021 59.085 609.69-151.040c108.954-180.634 75.776-412.979-79.36-555.93l190.464-190.566-62.669-62.566-199.475 199.475zM134.349 515.277c0-195.994 158.925-354.918 354.918-354.918s354.918 158.925 354.918 354.918-158.925 354.918-354.918 354.918c0 0 0 0 0 0-195.994 0-354.918-158.925-354.918-354.918z" />
<glyph unicode="&#xe926;" glyph-name="my-way" d="M270.95 810.701l-39.834 61.747c-22.016-14.234-43.11-30.003-62.874-47.206l48.128-55.603c17.203 14.95 35.533 28.672 54.579 41.062zM492.134 897.434c223.027-1.536 402.739-183.296 401.613-406.426 2.867-187.597-146.944-342.016-334.643-344.883s-342.118 147.046-344.883 334.746c0 3.379 0 6.758 0 10.24-1.843 153.6 121.242 279.45 274.739 281.293 153.6 1.843 279.45-121.242 281.293-274.739 0-2.15 0-4.301 0-6.554 0-119.501-96.87-216.371-216.371-216.371s-216.269 96.87-216.269 216.269c0 85.299 69.12 154.419 154.419 154.419s154.419-69.12 154.419-154.419c1.024-51.2-39.629-93.491-90.829-94.515s-93.491 39.629-94.515 90.829c0 1.229 0 2.458 0 3.789 0 8.602 3.482 16.282 9.114 21.914 3.686-23.347 24.371-41.165 54.374-66.765 5.632-4.813 11.981-10.24 18.637-16.077 1.843-1.536 4.506-1.536 6.349 0 6.656 5.837 13.005 11.264 18.637 16.077s10.752 9.216 15.667 13.517h0.819v0.717c23.654 20.89 38.605 37.581 38.605 60.006 1.434 23.040-16.077 42.803-39.117 44.237-0.614 0-1.229 0.102-1.741 0.102-8.294 0-16.282-2.765-22.733-7.885-0.102-0.102-0.205-0.205-0.307-0.307-16.486 17.408-39.629 28.467-65.434 28.979-51.2 1.024-93.491-39.629-94.515-90.829 0-1.229 0-2.458 0-3.789 0-85.299 69.12-154.419 154.419-154.419s154.419 69.12 154.419 154.419c0 119.501-96.87 216.371-216.371 216.371s-216.269-96.87-216.269-216.371c-1.843-153.6 121.242-279.45 274.739-281.293 153.6-1.843 279.45 121.242 281.293 274.739 0 2.15 0 4.301 0 6.554 2.867 187.699-147.046 342.118-334.746 344.883-187.597 2.867-342.016-146.944-344.781-334.643-0.102-3.379-0.102-6.758 0-10.24-2.15-221.798 175.821-403.354 397.619-405.504s403.354 175.821 405.504 397.619c0 2.662 0 5.222 0 7.885 1.434 257.536-206.029 467.456-463.565 468.992-66.355 0-131.994-14.438-192.205-42.291l25.805-56.832c52.224 24.269 109.261 36.762 166.81 36.557zM195.482 748.851l-55.603 48.128c-17.101-19.866-32.87-40.858-47.104-62.874l61.747-39.834c12.39 19.046 26.010 37.274 40.96 54.579zM963.584 223.642c-140.902-218.522-426.803-290.918-654.746-165.786-145.92 76.698-237.978 227.226-239.718 391.987-0.102 56.422 12.698 112.026 37.376 162.714l-58.163 25.088c-28.467-58.47-43.213-122.675-43.11-187.802 0-282.931 243.098-512.41 543.027-512.41 190.669-1.946 368.742 95.027 470.63 256.307l-55.296 29.901z" />
<glyph unicode="&#xe927;" glyph-name="next" d="M711.916 447.928l-461.312-461.414c-11.264-11.264-11.264-29.594 0-40.858s29.594-11.264 40.858 0v0l481.894 481.997c11.264 11.162 11.366 29.286 0.307 40.55-0.102 0.102-0.205 0.205-0.307 0.307l-481.894 481.69c-5.427 5.427-12.698 8.499-20.275 8.602-7.68 0.102-15.053-3.072-20.378-8.602-11.264-11.162-11.366-29.389-0.205-40.653 0.102-0.102 0.102-0.102 0.205-0.205l461.107-461.414z" />
<glyph unicode="&#xe928;" glyph-name="notification" d="M284.979 867.533l-73.421 73.421c-126.976-96.154-204.493-243.917-211.558-403.046h102.707c7.373 131.891 74.445 253.235 182.272 329.626zM921.293 537.907h102.707c-7.475 159.027-84.89 306.586-211.558 403.149l-72.909-73.421c107.315-76.8 174.080-198.042 181.76-329.728zM820.122 512.205c0 157.696-84.173 289.587-231.117 324.608v34.918c0 42.496-34.509 77.005-77.005 77.005s-77.005-34.509-77.005-77.005v-34.918c-147.354-34.918-231.117-166.4-231.117-324.608v-256.819l-102.707-102.707v-51.405h821.658v51.405l-102.707 102.707v256.819zM512-52.736c6.861-0.102 13.824 0.614 20.582 2.048 32.973 7.066 60.518 29.594 73.933 60.621 5.222 12.698 7.782 26.317 7.68 40.038h-205.414c0.41-56.73 46.49-102.605 103.219-102.707z" />
<glyph unicode="&#xe929;" glyph-name="oxygen" d="M960 474.112v357.888c0.102 35.226-28.262 63.795-63.488 64-0.205 0-0.307 0-0.512 0h-256v64h-64v-64h-352.154v64h-63.898v-64h-95.949v-64h95.949v-64h-31.949c-70.656-0.102-127.898-57.344-128-128v-576c0.102-70.656 57.344-127.898 128-128h128c70.656 0.102 127.898 57.344 128 128v576c-0.102 70.656-57.344 127.898-128 128h-32.051v64h352.154v-64h-32.256c-70.656-0.102-127.898-57.344-128-128v-576c0.102-70.656 57.344-127.898 128-128h128c70.758 0 128.102 57.344 128.102 128v576c-0.102 70.656-57.344 127.898-128 128h-31.949v64h256v-357.888c-49.971-17.715-76.186-72.499-58.47-122.573 17.715-49.971 72.499-76.186 122.573-58.47 49.971 17.715 76.186 72.499 58.47 122.573-9.728 27.341-31.232 48.845-58.573 58.47zM320 64c0-35.328-28.672-64-64-64h-128c-35.328 0-63.898 28.672-64 64v96.051h256v-96.051zM320 352.051h-128v-64h128v-64h-256v256h256v-128zM256 704.205c35.328 0 64-28.672 64-64.102 0 0 0-0.102 0-0.102v-96.051h-256v96.051c0 35.328 28.672 64 64 64l128 0.205zM735.949 64c0-35.328-28.672-64-64-64h-128.102c-35.328 0.102-63.795 28.774-63.898 64v96.051h256v-96.051zM735.949 352.051h-128v-64h128v-64h-256v256h256v-128zM671.949 704.205c35.328 0 64-28.672 64-64v-96.051h-256v95.846c0 35.328 28.57 63.898 63.898 64l128.102 0.205zM927.949 352.051c-17.715 0-32.051 14.336-32.051 32.051s14.336 32.051 32.051 32.051c17.715 0 32.051-14.336 32.051-32.051-0.102-17.715-14.336-32.051-32.051-32.051z" />
<glyph unicode="&#xe92a;" glyph-name="pause" d="M712.192-64c-25.702 0-46.592 20.89-46.592 46.592v930.816c0 25.702 20.89 46.592 46.592 46.592h214.118c25.6 0 46.49-20.89 46.49-46.592v-930.918c0-25.702-20.89-46.592-46.592-46.592h-214.016zM97.792-64c-25.702 0-46.592 20.89-46.592 46.592v930.816c0 25.702 20.89 46.592 46.592 46.592h214.118c25.6 0 46.49-20.89 46.49-46.592v-930.918c0-25.702-20.89-46.592-46.592-46.592h-214.016z" />
<glyph unicode="&#xe92b;" glyph-name="plant" d="M895.488 455.475c20.275 71.782 27.648 146.534 21.914 220.877v0c-0.102 0.512-0.205 1.126-0.307 1.638v0c-0.102 0.512-0.205 0.922-0.41 1.434v0.512l-0.614 1.536-0.614 1.024-0.205 0.41-0.922 1.126c-0.41 0.41-0.717 0.819-1.126 1.229v0l-1.126 0.922-0.41 0.307-0.922 0.614h-0.512l-0.41 0.205-0.512 0.205-0.922 1.229-1.126 0.41h-0.41c-1.126 0.307-2.15 0.512-3.277 0.512h-3.994l-1.126-0.307h-0.41l-1.536-0.614c-1.434-0.717-22.426-10.138-69.018-36.762 18.432 69.12 16.998 142.029-4.198 210.432v0.512l-0.614 1.434-0.512 0.307-0.41 0.717-0.41 0.41-0.41 0.614-0.307 0.512-1.024 1.024-0.614 0.512-0.512 0.41-0.614 0.41-0.512 0.41-0.717 0.41h-0.512l-0.717 0.41-0.614 0.205-0.717 0.41-0.717 0.205h-7.782l-0.717-0.205c-62.157-24.064-116.736-64.205-158.31-116.224-26.829 75.059-69.12 143.77-124.109 201.523l-0.41 0.205-0.614 0.614-1.843 1.229-0.614 0.307-1.434 0.614-0.717 0.205-0.512 0.41h-8.704l-1.434-0.41-1.434-0.614-0.614-0.307-0.614-0.41-1.024-0.819-0.717-0.614-0.512-0.205c-54.579-57.856-96.666-126.464-123.29-201.421-41.574 52.122-96.154 92.16-158.31 116.224v0h-8.602l-0.717-0.205-0.717-0.307-0.614-0.205-0.717-0.307h-0.205l-0.41-0.205-0.717-0.41-0.614-0.41-0.512-0.512-0.512-0.41-1.536-1.536-0.41-0.512-0.614-0.512-0.819-1.229-0.307-0.614-0.614-1.434v-0.307c-21.197-68.301-22.63-141.312-4.198-210.432-46.694 26.624-67.686 36.147-69.222 36.762v0l-1.434 0.614h-0.512l-1.126 0.205h-3.891c-1.126-0.102-2.15-0.205-3.277-0.512h-0.512l-1.024-0.41-0.614-0.307-0.512-0.205-0.41-0.205h-0.614l-0.922-0.614-0.512-0.307-1.024-0.819h-0.205c-0.41-0.41-0.819-0.819-1.126-1.229v0l-0.819-1.126-0.307-0.41-0.512-0.922-0.614-1.536v-0.512c0-0.41-0.307-0.922-0.41-1.331v-0.205c-0.205-0.614-0.41-1.331-0.614-2.048v0c-5.734-74.342 1.741-149.094 21.914-220.877 16.282-56.525 52.326-105.472 101.581-137.83-26.931-13.414-37.99-46.182-24.576-73.114 8.397-16.794 24.781-28.16 43.52-30.003l32.256-173.363c11.469-61.133 64.819-105.472 126.976-105.574h207.36c62.259 0.102 115.507 44.442 126.976 105.574l32.154 173.056h18.534c30.106 0 54.579 24.474 54.579 54.579 0 27.034-19.866 50.074-46.592 53.965 45.466 32.256 78.643 78.848 94.208 132.301zM789.811 629.965c-24.576-14.746-53.965-32.666-88.371-54.682l-0.922-0.614-12.493-7.885-0.614-0.41c0 1.126 0 2.253-0.307 3.379-0.205 3.072-0.512 6.144-0.819 9.114 34.816 73.318 74.445 152.678 117.965 236.646 10.65-62.054 5.734-125.85-14.438-185.549zM775.578 825.446c-34.816-67.277-67.174-131.686-96.563-192.41-5.12 29.901-12.288 59.392-21.299 88.371 31.539 42.598 71.68 78.131 117.862 104.038v0zM626.278 720.896c0-0.41 0.205-0.922 0.41-1.434 16.589-50.79 26.931-103.424 31.027-156.672v-1.229c0.205-3.072 0.41-6.246 0.614-9.318 0-0.922 0-1.843 0-2.662s0-1.638 0-2.458c-50.381-37.581-91.136-86.63-118.989-142.95l-0.205-0.41c-1.126-2.253-2.355-4.608-3.482-6.861l-0.614-1.126c-1.126-2.253-2.15-4.506-3.174-6.758l-0.512-1.229c-1.536-3.379-3.174-6.861-4.71-10.24v528.794c20.173-25.293 38.195-52.224 53.658-80.691 18.534-33.382 33.894-68.506 45.978-104.755zM397.312 719.462c0 0.41 0.205 0.922 0.41 1.434 11.981 36.25 27.238 71.373 45.67 104.858 15.462 28.365 33.382 55.398 53.658 80.589v-528.998c-1.536 3.482-3.072 6.963-4.71 10.342l-0.512 1.126c-1.024 2.253-2.15 4.506-3.277 6.758l-0.512 1.126c-1.126 2.355-2.253 4.608-3.482 6.861l-0.205 0.41c-27.853 56.422-68.608 105.472-118.886 143.155 0 0.819 0 1.638 0 2.458s0 1.843 0 2.662c0.205 3.072 0.41 6.246 0.614 9.318v1.229c4.096 53.248 14.541 105.882 31.232 156.672zM366.387 721.408c-9.114-28.979-16.282-58.47-21.504-88.371-29.184 60.621-61.747 125.235-96.563 192.41 46.285-25.907 86.426-61.44 118.067-104.038zM219.648 815.616c43.52-83.968 83.046-163.328 117.965-236.646-0.307-3.072-0.512-6.042-0.819-9.114 0-1.126 0-2.253-0.307-3.379l-0.614 0.307-13.107 8.499c-34.509 21.914-63.898 40.038-88.474 54.784-20.378 59.597-25.395 123.392-14.643 185.549zM260.506 578.765l4.198-2.662 9.933-6.144 13.312-8.397 14.541-9.216 12.902-8.397 3.072-2.048 14.234-9.114 5.12-3.379 3.379-2.355c64-46.694 112.23-111.821 138.342-186.573l0.614-1.536c0.922-2.355 1.741-4.71 2.662-7.168l1.126-3.277 1.843-5.018h-18.022c-95.13 50.483-176.947 122.778-238.797 210.842-25.088 33.382-48.333 68.096-69.734 104.038 23.347-12.902 56.73-32.051 101.274-59.597v0zM157.389 464.077c-14.336 50.995-21.914 103.629-22.528 156.57 21.402-35.738 44.749-70.349 69.734-103.629 54.272-76.083 122.061-141.619 199.987-193.229h-121.856c-60.928 25.19-107.11 76.902-125.338 140.288v0zM817.971 269.107c0-13.517-10.957-24.576-24.576-24.576h-353.485c-8.294-0.41-14.643-7.475-14.234-15.77 0.41-7.68 6.554-13.824 14.234-14.234h304.435l-31.232-167.629c-8.704-47.002-49.766-80.998-97.485-80.998h-207.36c-47.821 0-88.781 34.099-97.485 80.998l-31.232 167.629h52.941c8.294 0.41 14.643 7.475 14.234 15.77-0.41 7.68-6.554 13.824-14.234 14.234h-78.029c-13.517-0.512-24.986 9.933-25.498 23.552-0.512 13.517 9.933 24.986 23.552 25.498 0.717 0 1.331 0 2.048 0h539.034c13.414 0.102 24.371-10.854 24.371-24.474v0zM741.171 323.686h-121.856c72.499 47.718 135.987 107.725 187.904 177.254 5.427 6.246 4.813 15.77-1.434 21.197s-15.77 4.813-21.197-1.434c-0.41-0.41-0.717-0.819-1.024-1.331-59.085-82.125-136.806-149.197-226.714-195.584h-18.739l1.843 5.018 1.126 3.277c0.922 2.355 1.741 4.813 2.662 7.168l0.614 1.536c26.214 74.752 74.445 139.776 138.445 186.47v0l3.379 2.355 5.12 3.379 17.306 11.162 12.8 8.397 4.198 2.56 10.342 6.554 6.246 3.891 7.168 4.506 10.65 6.554 3.584 2.253c44.646 27.648 78.029 46.797 101.478 59.699-5.734-9.728-12.493-20.89-20.173-32.563-4.915-6.758-3.379-16.077 3.277-20.992 6.758-4.915 16.077-3.379 20.992 3.277 0.307 0.512 0.717 1.024 0.922 1.536 7.27 11.264 13.722 21.709 19.251 31.027-0.614-52.941-8.192-105.677-22.528-156.672-18.33-63.488-64.614-115.2-125.645-140.493z" />
<glyph unicode="&#xe92c;" glyph-name="play-back" d="M76.8 448l870.4 512v-1024l-870.4 512z" />
<glyph unicode="&#xe92d;" glyph-name="play-line" d="M106.291-64.031v1024l811.418-512.102-811.418-511.898zM172.749 839.547v-783.155l620.442 391.475-620.442 391.68z" />
<glyph unicode="&#xe92e;" glyph-name="play" d="M109.67 960v-1024l804.557 512-804.557 512z" />
<glyph unicode="&#xe92f;" glyph-name="plus" d="M618.496 960v-415.642h405.504v-192.717h-405.504v-415.642h-212.89v415.642h-405.606v192.717h405.606v415.642h212.89z" />
<glyph unicode="&#xe930;" glyph-name="prev" d="M312.044 448.031l461.312 461.414c11.264 11.264 11.264 29.594 0 40.858s-29.594 11.264-40.858 0v0l-481.894-481.997c-11.264-11.162-11.366-29.286-0.307-40.55 0.102-0.102 0.205-0.205 0.307-0.307l481.894-481.69c5.427-5.427 12.698-8.499 20.275-8.602 7.68-0.102 15.053 3.072 20.378 8.602 11.264 11.162 11.366 29.389 0.205 40.653-0.102 0.102-0.102 0.102-0.205 0.205l-461.107 461.414z" />
<glyph unicode="&#xe931;" glyph-name="progress" d="M345.6 64.102c11.059 0 20.070 8.909 20.070 19.968s-8.909 20.070-19.968 20.070c-11.059 0-20.070-8.909-20.070-19.968 0-5.325 2.15-10.445 5.837-14.131 3.789-3.789 8.806-5.939 14.131-5.939zM1003.93-23.962h-96.358l-36.557 65.331v178.176c0.102 41.882-27.136 78.848-67.174 91.136l-153.498 47.616v162.509c0 14.643-4.301 28.979-12.288 41.267 57.958 19.968 88.781 83.046 68.915 141.005-14.234 41.37-51.507 70.554-95.027 74.445v82.33c0 55.194-44.749 100.045-99.942 100.147-11.059 0-19.968-8.909-19.968-19.968v-159.539h-0.307c-35.942 0.614-65.536-27.955-66.253-63.898-0.614-35.942 27.955-65.536 63.898-66.253h1.229c-3.584-33.075-13.21-65.229-28.57-94.822-5.53-10.65-8.397-22.528-8.397-34.611v-172.032l-48.128-86.835-258.253-162.304c-24.474-15.258-39.219-42.189-39.117-70.963v-52.736h-88.064c-11.059 0-19.968-8.909-19.968-19.968s8.909-19.968 19.968-19.968h983.962c11.059 0 19.968 8.909 19.968 19.968-0.102 10.957-9.011 19.968-20.070 19.968zM673.28 667.034c0-35.328-26.112-65.331-61.133-70.349v140.595c35.021-5.018 61.030-34.918 61.133-70.246zM531.968 916.582c24.064-8.499 40.141-31.232 40.141-56.73v-286.413c0-8.704 5.632-16.384 13.926-19.046 14.643-4.608 24.576-18.227 24.576-33.587v-157.184h-116.941v157.184c0 5.632 1.331 11.162 3.891 16.179 22.528 43.315 34.304 91.341 34.509 140.083v239.514zM472.576 697.856c-9.523 10.035-9.216 25.907 0.922 35.533 4.608 4.403 10.752 6.861 17.203 6.963h1.434v-50.278h-1.946c-6.656 0.102-13.005 2.867-17.613 7.782zM302.592 63.078c-4.915 9.83-16.896 13.926-26.726 9.011l-88.678-43.418c-1.331-0.614-2.56-1.434-3.686-2.355l-35.43-28.467v31.027c0 15.053 7.782 29.082 20.582 37.069l262.451 164.966c2.867 1.843 5.222 4.301 6.861 7.27l47.514 85.504h107.93l-57.754-86.733c-24.166-36.25-57.446-65.434-96.563-84.685l-41.37-20.378c-9.933-4.915-14.029-16.896-9.114-26.726 4.915-9.933 16.896-14.029 26.726-9.114l41.37 20.378c45.466 22.323 84.173 56.218 112.333 98.406l15.667 23.552 163.533-60.211v-184.832c0-5.837 0.922-11.674 2.662-17.203h-566.067l22.016 17.715 86.63 42.598c9.83 4.71 13.926 16.691 9.114 26.624 0 0 0 0 0 0zM805.274-23.962c-9.523 0-17.203 7.68-17.203 17.203v198.758c0 8.397-5.222 15.872-13.107 18.739l-167.629 61.747 31.744 47.514 153.19-47.514c23.245-7.066 39.219-28.57 39.117-52.941v-183.603c0-3.379 0.819-6.758 2.56-9.728l28.16-50.381-56.832 0.205z" />
<glyph unicode="&#xe932;" glyph-name="refresh" d="M512 820.326v139.674l-186.163-186.163 186.163-186.163v139.571c154.214 0 279.245-125.030 279.245-279.245 0.205-45.466-11.059-90.317-32.563-130.355l67.994-67.994c109.875 173.466 58.368 403.149-115.098 513.024-59.699 37.786-128.922 57.856-199.578 57.651zM512 168.755c-154.214 0-279.245 125.030-279.245 279.245-0.205 45.466 11.059 90.317 32.563 130.355l-67.994 67.994c-109.875-173.466-58.368-403.149 115.098-513.024 59.699-37.786 128.922-57.856 199.578-57.754v-139.571l186.163 186.163-186.163 186.163v-139.571z" />
<glyph unicode="&#xe933;" glyph-name="repeat" d="M180.941-64c-7.168 0-14.029 2.867-18.944 7.987l-153.6 153.6c-10.854 10.547-10.957 27.955-0.41 38.707 0.102 0.102 0.307 0.307 0.41 0.41l153.6 153.6c5.018 5.325 11.981 8.499 19.354 8.499 15.053 0.102 27.341-11.981 27.443-27.034 0-0.205 0-0.41 0-0.512v-98.611h550.707v165.171c0.819 30.413 26.214 54.374 56.627 53.555 29.286-0.819 52.736-24.371 53.555-53.555v-220.365c0-30.413-24.678-55.091-55.091-55.091h-605.901v-98.611c0.205-15.155-11.981-27.648-27.238-27.853-0.205 0.102-0.41 0.102-0.512 0.102zM497.971 282.726c-22.733 0.307-41.062 18.637-41.37 41.267v179.2h-48.435c-18.842 0-34.099 15.258-34.099 34.099v0c-0.102 12.698 7.168 24.371 18.534 30.106l82.125 40.755c6.042 3.277 12.902 5.018 19.866 4.915 24.678 0 44.646-19.968 44.646-44.646v-244.634c-0.512-22.426-18.739-40.653-41.267-41.062v0zM153.6 503.091c-30.413 0-55.091 24.678-55.091 55.091v220.262c0 30.413 24.678 55.091 55.091 55.091h605.901v98.611c-0.102 15.258 12.083 27.648 27.341 27.853 0.205 0 0.41 0 0.614 0 7.168 0 14.029-2.867 19.046-7.987l153.6-153.6c10.854-10.547 10.957-27.955 0.41-38.707-0.102-0.102-0.307-0.307-0.41-0.41l-153.6-153.6c-5.018-5.325-11.981-8.499-19.354-8.499-7.066 0-13.926 2.765-19.046 7.578-5.53 5.222-8.602 12.493-8.499 20.070v98.611h-550.81v-165.171c-0.102-30.515-24.781-55.091-55.194-55.194z" />
<glyph unicode="&#xe934;" glyph-name="secuity" d="M512-64v0c-240.845 58.88-422.502 301.056-422.502 563.405v220.672c0 37.171 21.914 70.861 55.91 85.914l328.602 146.022c24.166 10.752 51.814 10.752 76.083 0l328.602-146.022c33.997-15.053 55.91-48.742 55.91-85.914v-220.672c-0.102-262.349-181.76-504.627-422.605-563.405zM296.346 452.403c-25.907-0.205-46.797-21.402-46.49-47.411 0.102-12.186 4.915-23.757 13.414-32.461l121.549-121.549c8.806-8.806 20.787-13.722 33.28-13.722 12.39-0.102 24.269 4.813 32.87 13.722l309.35 309.35c19.661 16.896 22.016 46.49 5.12 66.15s-46.49 22.016-66.15 5.12c-1.843-1.536-3.584-3.277-5.12-5.12l-276.070-276.070-88.781 88.166c-8.704 9.011-20.582 13.926-32.973 13.824v0z" />
<glyph unicode="&#xe935;" glyph-name="send" d="M0.512 9.216l1023.488 438.784-1023.488 438.784-0.512-341.299 731.443-97.485-731.443-97.485 0.512-341.299z" />
<glyph unicode="&#xe936;" glyph-name="share" d="M1023.693 448.205l-466.637 511.795v-306.483h-54.272c-277.709 0-502.784-225.075-502.784-502.784v-214.733l89.498 98.099c120.218 131.379 289.485 207.053 467.558 208.998v-306.483l466.637 511.59zM60.006 90.214v60.416c0 244.531 198.246 442.778 442.778 442.88h114.074v211.558l325.53-356.966-325.53-356.762v211.763h-53.862c-189.542-0.307-370.893-77.107-502.989-212.89z" />
<glyph unicode="&#xe937;" glyph-name="show" d="M0 447.59c0.205-20.070 16.589-36.25 36.659-36.045h863.334l-261.632-261.632c-14.131-14.234-14.029-37.274 0.307-51.302 14.234-14.131 37.274-14.029 51.302 0.307l323.584 323.686c13.926 14.131 13.926 36.864 0 51.098l-323.584 323.482c-0.205 0.205-0.307 0.307-0.512 0.512-14.234 13.926-37.171 13.722-51.098-0.512-13.926-14.336-13.926-37.274 0-51.61l261.632-261.12h-863.334c-20.173-0.205-36.557-16.589-36.659-36.864 0 0.102 0 0 0 0z" />
<glyph unicode="&#xe938;" glyph-name="social" d="M975.872 313.856c-1.024 1.024-2.048 2.048-3.072 3.072-9.216 11.264-19.456 21.504-29.696 30.72-44.032 36.864-97.28 57.344-151.552 62.464l-99.328 144.384c49.152 43.008 78.848 103.424 78.848 171.008 0 52.224-18.432 101.376-50.176 140.288-1.024 1.024-2.048 2.048-3.072 3.072-9.216 11.264-19.456 21.504-29.696 30.72-45.056 37.888-100.352 59.392-155.648 63.488-1.024 0-1.024 0-2.048 0-7.168 0-14.336 1.024-22.528 1.024-1.024 0-2.048 0-3.072 0-7.168 0-14.336-1.024-21.504-1.024-1.024 0-1.024 0-2.048 0-47.104-6.144-93.184-23.552-134.144-53.248-57.344-44.032-94.208-109.568-94.208-184.32 0-64.512 27.648-122.88 72.704-164.864l-93.184-150.528c-6.144 2.048-13.312 3.072-20.48 4.096l-1.024-1.024c-10.24 2.048-20.48 2.048-30.72 2.048-30.72 0-58.368-7.168-83.968-19.456-1.024 0-2.048-1.024-2.048-1.024-2.048-1.024-5.12-3.072-7.168-4.096-37.888-22.528-68.608-58.368-82.944-102.4 0-1.024-1.024-2.048-1.024-4.096s-1.024-3.072-1.024-5.12c-2.048-10.24-3.072-21.504-3.072-31.744 0-2.048 0-4.096 0-6.144 0-3.072 0-5.12 0-7.168 0-5.12 1.024-10.24 2.048-14.336 0 0 0 0 0 0 1.024-5.12 2.048-10.24 4.096-15.36 0 0 0-1.024 0-1.024 1.024-4.096 2.048-7.168 4.096-11.264 1.024-3.072 2.048-5.12 3.072-8.192 0-1.024 1.024-2.048 1.024-3.072 25.6-54.272 81.92-94.208 149.504-101.376v-68.608c0-11.264 9.216-20.48 20.48-20.48h110.592c9.216-29.696 35.84-51.2 68.608-51.2 38.912 0 71.68 31.744 71.68 71.68s-31.744 71.68-71.68 71.68c-31.744 0-59.392-21.504-68.608-51.2h-89.088v48.128c66.56 6.144 121.856 45.056 148.48 99.328 9.216 18.432 14.336 39.936 16.384 61.44 0 2.048 0 3.072 0 5.12s0 4.096 0 6.144c0 10.24-1.024 20.48-3.072 30.72 0 1.024 0 2.048-1.024 2.048-1.024 3.072-1.024 5.12-2.048 8.192-6.144 20.48-16.384 38.912-28.672 55.296-1.024 2.048-3.072 4.096-4.096 5.12s-2.048 3.072-3.072 4.096c-14.336 15.36-31.744 28.672-51.2 38.912-1.024 1.024-2.048 1.024-3.072 1.024l86.016 139.264c33.792-22.528 71.68-37.888 111.616-44.032 0 0 0 0 1.024 0 6.144-1.024 12.288-2.048 19.456-2.048 1.024 0 3.072 0 4.096 0 5.12 0 10.24-1.024 15.36-1.024 1.024 0 2.048 0 3.072 0 6.144 0 12.288 0 18.432 1.024 1.024 0 3.072 0 4.096 0 44.032 3.072 87.040 17.408 124.928 41.984l82.944-119.808c-1.024 0-3.072 0-4.096 0s-1.024 0-2.048 0c-47.104-5.12-94.208-22.528-134.144-52.224-57.344-44.032-94.208-109.568-94.208-184.32 0-76.8 39.936-145.408 101.376-189.44 34.816-24.576 73.728-38.912 114.688-46.080 0 0 0 0 1.024 0 6.144-1.024 12.288-2.048 19.456-2.048 1.024 0 3.072 0 4.096 0 5.12 0 10.24-1.024 15.36-1.024 1.024 0 2.048 0 3.072 0 6.144 0 12.288 0 18.432 1.024 1.024 0 3.072 0 4.096 0 47.104 4.096 94.208 19.456 135.168 48.128 62.464 43.008 102.4 111.616 102.4 189.44-4.096 51.2-22.528 99.328-53.248 138.24zM363.52 39.424c16.384 0 30.72-13.312 30.72-30.72s-13.312-30.72-30.72-30.72c-16.384 0-30.72 13.312-30.72 30.72s13.312 30.72 30.72 30.72zM110.592 127.488v32.768c2.048 38.912 34.816 69.632 73.728 67.584 38.912 2.048 72.704-28.672 74.752-67.584v-32.768c-46.080-23.552-101.376-23.552-148.48 0zM147.456 296.448c1.024 19.456 17.408 34.816 36.864 33.792 18.432 2.048 34.816-12.288 36.864-30.72s-12.288-34.816-30.72-36.864c-2.048 0-4.096 0-6.144 0-19.456-1.024-35.84 14.336-36.864 33.792zM296.96 335.36v0c49.152-50.176 49.152-130.048 0-179.2v5.12c-1.024 37.888-23.552 72.704-57.344 89.088 25.6 23.552 27.648 64.512 4.096 90.112-2.048 2.048-4.096 4.096-6.144 6.144-30.72 25.6-75.776 24.576-105.472-2.048-25.6-23.552-27.648-64.512-4.096-90.112 1.024-1.024 2.048-2.048 4.096-4.096-34.816-16.384-57.344-51.2-57.344-89.088v-5.12c-50.176 50.176-49.152 131.072 1.024 181.248 4.096 4.096 8.192 7.168 12.288 10.24 61.44 49.152 151.552 44.032 208.896-12.288zM345.088 601.6v-10.24c-74.752 74.752-73.728 196.608 1.024 271.36 6.144 5.12 12.288 11.264 18.432 16.384 94.208 73.728 229.376 66.56 314.368-18.432 74.752-74.752 74.752-194.56 0-269.312v10.24c-2.048 47.104-38.912 86.016-86.016 89.088v0c28.672 19.456 47.104 51.2 49.152 86.016 0 111.616-70.656 135.168-130.048 135.168s-130.048-23.552-130.048-135.168c3.072-34.816 20.48-66.56 49.152-86.016-47.104-3.072-83.968-41.984-86.016-89.088zM512 691.712c-39.936 5.12-73.728 31.744-90.112 68.608 43.008 0 83.968 15.36 115.712 43.008l66.56-35.84c-14.336-40.96-50.176-70.656-92.16-75.776zM527.36 593.408l-15.36-13.312-15.36 14.336 15.36 34.816 15.36-35.84zM419.84 794.112c-2.048 45.056 32.768 82.944 77.824 84.992 5.12 0 9.216 0 14.336-1.024 43.008 6.144 83.968-23.552 90.112-67.584 0-1.024 0-2.048 0-3.072l-62.464 33.792c-8.192 5.12-19.456 2.048-24.576-6.144v0c-1.024-1.024-1.024-2.048-2.048-3.072-10.24-24.576-60.416-34.816-93.184-37.888zM381.952 560.64v40.96c2.048 32.768 28.672 57.344 61.44 56.32h40.96l-26.624-61.44c-3.072-6.144-1.024-13.312 4.096-18.432l36.864-33.792c7.168-7.168 18.432-7.168 26.624 0l36.864 33.792c5.12 4.096 7.168 12.288 4.096 18.432l-26.624 61.44h40.96c32.768 1.024 59.392-23.552 61.44-56.32v-40.96c-78.848-52.224-181.248-52.224-260.096 0zM635.904 8.704v40.96c2.048 32.768 28.672 57.344 61.44 56.32h40.96l-26.624-61.44c-3.072-6.144-1.024-13.312 4.096-18.432l36.864-33.792c7.168-7.168 18.432-7.168 26.624 0l36.864 33.792c5.12 4.096 7.168 12.288 4.096 18.432l-26.624 61.44h40.96c32.768 1.024 59.392-23.552 61.44-56.32v-40.96c-78.848-51.2-181.248-51.2-260.096 0zM791.552 251.392l66.56-35.84c-13.312-40.96-49.152-70.656-92.16-75.776-39.936 5.12-73.728 31.744-90.112 68.608 43.008 0 83.968 15.36 115.712 43.008zM673.792 242.176c-2.048 45.056 32.768 82.944 77.824 84.992 5.12 0 9.216 0 14.336-1.024 43.008 6.144 83.968-23.552 90.112-67.584 0-1.024 0-2.048 0-3.072l-62.464 33.792c-8.192 5.12-19.456 2.048-24.576-6.144v0c-1.024-1.024-1.024-2.048-2.048-3.072-9.216-24.576-60.416-34.816-93.184-37.888zM781.312 42.496l-15.36-14.336-15.36 14.336 15.36 34.816 15.36-34.816zM933.888 39.424v10.24c-2.048 47.104-38.912 86.016-86.016 89.088v0c28.672 19.456 47.104 51.2 49.152 86.016 0 112.64-70.656 136.192-130.048 136.192s-130.048-23.552-130.048-136.192c3.072-34.816 20.48-66.56 49.152-86.016-47.104-3.072-83.968-41.984-86.016-89.088v-10.24c-74.752 74.752-73.728 196.608 1.024 271.36 6.144 6.144 12.288 11.264 18.432 16.384 94.208 74.752 229.376 66.56 314.368-18.432 73.728-73.728 73.728-194.56 0-269.312z" />
<glyph unicode="&#xe939;" glyph-name="sow" d="M34.816 320.205h102.298c14.848 0.102 27.955 9.728 32.358 23.859 55.603-28.877 114.176-51.302 174.899-66.867-9.728-31.437 7.987-64.819 39.424-74.547s64.819 7.987 74.547 39.424c1.843 5.837 2.662 11.981 2.662 18.125 0.205 2.97 0.205 5.939 0 8.909h289.587c37.478-0.205 67.994 30.106 68.198 67.584 0.102 12.186-3.174 24.166-9.318 34.714h60.518c37.478-0.205 67.994 30.003 68.198 67.482 0.102 12.186-3.174 24.166-9.318 34.714h26.522c37.683 0.819 67.482 32.051 66.662 69.632-0.819 36.454-30.208 65.843-66.662 66.662l-0.102 0.102h-43.93c6.144 10.24 9.523 22.016 9.523 34.099 0 37.683-30.515 68.198-68.198 68.198h-329.216v8.704c-0.41 27.034 15.155 51.61 39.731 62.874l79.462 36.966c34.099 15.872 48.947 56.422 33.075 90.522-11.162 23.962-35.021 39.322-61.44 39.424-9.933 0-19.763-2.15-28.774-6.246l-246.989-115.302c-38.605-19.456-72.090-47.923-97.485-82.944-16.589-24.064-41.472-41.267-69.837-48.026-1.536 17.613-16.384 31.13-34.099 31.027h-102.298c-18.842 0-34.099-15.258-34.099-34.099 0 0 0 0 0 0v-340.89c0-18.842 15.258-34.099 34.099-34.099zM401.408 235.11c-14.131 0-25.6 11.469-25.6 25.6s11.469 25.6 25.6 25.6c14.131 0 25.6-11.469 25.6-25.6-0.102-14.131-11.469-25.6-25.6-25.6zM171.213 663.45c39.936 7.373 75.162 30.413 97.792 64.102 22.118 29.491 50.79 53.35 83.661 69.837l247.091 115.2c17.203 7.27 37.171-0.205 45.363-17.101 7.885-17.101 0.41-37.376-16.691-45.158-0.102 0-0.205-0.102-0.307-0.102l-78.746-35.738c-37.274-16.896-60.826-54.374-60.006-95.232 0.307-7.373 0-14.848-0.819-22.118-3.789-28.672-17.92-54.989-39.731-73.933-6.861-6.758-6.963-17.818-0.102-24.678 6.349-6.451 16.486-6.963 23.45-1.229 23.859 21.402 40.448 49.664 47.411 80.998h333.414c18.842 0 34.099-15.258 34.099-34.099s-15.258-34.099-34.099-34.099h-170.598c-9.421 0.41-17.408-6.861-17.818-16.282s6.861-17.408 16.282-17.818c0.512 0 1.024 0 1.536 0h272.691c18.842 0 34.099-15.258 34.099-34.099s-15.258-34.099-34.099-34.099l0.102 0.102h-272.794c-9.421 0.41-17.408-6.861-17.818-16.282s6.861-17.408 16.282-17.818c0.512 0 1.024 0 1.536 0h187.494c18.842 0 34.099-15.258 34.099-34.099s-15.258-34.099-34.099-34.099h-187.494c-9.421 0.41-17.408-6.861-17.818-16.282s6.861-17.408 16.282-17.818c0.512 0 1.024 0 1.536 0h68.198c18.842 0 34.099-15.258 34.099-34.099s-15.258-34.099-34.099-34.099h-307.917c-20.992 20.787-54.272 22.835-77.517 4.608-67.584 15.974-132.813 40.755-193.946 73.626v281.907zM34.816 695.091h102.298l0.205-340.787h-102.4v340.787zM1007.718 149.811c-0.512 0-1.024 0-1.434 0v0h-265.728c-37.786-0.102-71.066-25.088-81.613-61.338-24.371-81.101-109.875-127.181-190.976-102.81-49.357 14.848-87.962 53.453-102.81 102.81-10.547 36.352-43.827 61.338-81.613 61.338h-265.728c-9.421 0.41-17.408-6.861-17.818-16.282s6.861-17.408 16.282-17.818c0.512 0 1.024 0 1.536 0h265.626c22.835 0 42.803-15.155 49.050-37.171 29.901-99.123 134.554-155.238 233.574-125.235 60.109 18.125 107.11 65.126 125.235 125.235 6.246 21.914 26.214 37.069 49.050 37.171h265.728c9.421-0.41 17.408 6.861 17.818 16.282 0.512 9.421-6.758 17.408-16.179 17.818zM477.901 124.314c0-32.87 26.726-59.597 59.597-59.597s59.597 26.726 59.597 59.597c0 32.87-26.726 59.597-59.597 59.597s-59.597-26.726-59.597-59.597zM563.098 124.314c0-14.131-11.469-25.6-25.6-25.6s-25.6 11.469-25.6 25.6c0 14.131 11.469 25.498 25.6 25.498v0.102c14.131 0 25.6-11.469 25.6-25.6zM537.498 337.306c32.87 0 59.597 26.726 59.597 59.597s-26.726 59.597-59.597 59.597c-32.87 0-59.597-26.726-59.597-59.597s26.726-59.597 59.597-59.597zM537.498 422.502c14.131 0 25.6-11.469 25.6-25.6s-11.469-25.6-25.6-25.6-25.6 11.469-25.6 25.6c0.102 14.131 11.469 25.6 25.6 25.6zM460.8 499.2c0 32.87-26.726 59.597-59.597 59.597s-59.597-26.726-59.597-59.597c0-32.87 26.726-59.597 59.597-59.597s59.597 26.624 59.597 59.597zM375.603 499.2c0 14.131 11.469 25.6 25.6 25.6s25.6-11.469 25.6-25.6c0-14.131-11.469-25.6-25.6-25.6s-25.6 11.469-25.6 25.6z" />
<glyph unicode="&#xe93a;" glyph-name="spring" d="M1023.898 703.59c1.331 47.411-15.77 64.102-63.59 62.976-37.581-0.922-75.059-4.506-114.074-6.963-1.024 3.277-2.458 7.885-3.994 12.39-11.162 34.099-20.992 68.608-33.792 101.99-13.312 34.816-35.328 43.93-69.837 28.774-37.171-16.282-73.216-35.226-110.797-53.453-30.515 39.014-59.597 82.227-104.243 110.694-8.499 0-17.101 0-25.6 0-42.394-29.901-72.806-70.861-102.4-110.797-37.274 18.022-73.728 36.864-111.104 53.555-33.997 15.155-56.32 6.144-69.734-28.467-14.438-37.171-26.624-75.264-40.755-115.917-10.65 1.126-24.166 3.072-37.786 3.994-25.498 1.843-50.995 2.662-76.39 4.71-27.955 2.253-48.128-8.090-59.802-33.997 0-26.829 0-53.658 0-80.589 5.427-30.31 9.933-60.928 16.589-90.931 15.872-72.090 44.134-138.854 92.058-196.813-40.96-27.75-81.203-55.091-108.646-96.666 0-8.499 0-17.101 0-25.6 98.611-114.074 216.269-175.002 371.61-133.427 22.426-55.296 54.886-104.243 97.075-146.637 33.792-34.099 56.218-33.178 88.781 1.946 40.038 43.213 72.806 91.136 93.389 141.824 36.659-3.891 71.066-11.571 105.062-10.342 100.762 3.891 180.019 54.579 248.832 123.699 26.010 26.010 25.19 48.947-1.946 74.035-27.546 25.498-57.037 48.742-84.89 72.294 14.029 22.323 30.515 45.158 43.52 69.837 43.827 83.763 59.802 174.49 62.464 267.878zM959.898 293.478c10.138-7.578 20.070-16.589 27.238-26.829 3.584-5.12 3.994-18.022 0.205-21.811-72.192-72.909-154.522-125.542-262.349-119.091-23.859 1.434-47.206 10.547-70.758 16.384-6.349 1.536-12.493 3.994-14.131 4.403-24.883-42.496-47.821-83.866-73.011-123.699-10.65-16.794-26.214-30.413-39.322-45.67-10.65-12.288-20.070-12.39-31.949-0.512-46.285 46.49-81.818 99.635-103.424 161.792-0.922 2.765-2.048 5.53-2.458 6.656-34.611-7.066-66.253-17.101-98.611-19.558-79.872-6.042-146.739 28.365-208.077 75.366-15.462 11.776-28.979 26.010-43.827 38.707-12.595 10.854-12.902 21.094 0.307 31.334 31.642 24.576 63.386 49.152 95.232 73.421 5.734 4.403 12.39 7.475 19.456 11.776-1.638 2.662-2.56 4.71-4.096 6.349-68.506 71.782-100.352 159.949-113.766 256-4.301 30.72-5.837 61.85-7.066 92.877-0.819 22.221 3.584 26.726 25.19 25.395 47.923-2.867 95.642-6.963 144.691-10.65 8.294 29.798 17.203 62.976 27.034 95.949 4.198 13.926 10.65 27.136 15.462 40.96 5.632 16.077 15.155 20.89 30.822 12.8 43.213-22.118 86.528-44.134 129.741-66.048 22.426 27.955 46.592 58.47 71.27 88.474 7.27 8.909 16.794 15.974 24.474 24.576 9.728 10.854 18.842 9.83 27.546-0.512 28.57-33.997 56.934-68.096 85.299-102.298 3.482-4.198 6.349-8.909 8.397-11.878 39.424 20.89 77.312 42.701 116.838 61.338 35.123 16.589 37.581 15.667 50.381-20.89 13.21-37.786 22.63-76.8 33.69-115.302 1.024-3.379 2.048-6.758 3.072-10.445 28.365 3.994 55.91 8.806 83.661 11.469 21.811 2.15 43.827 1.638 65.741 2.662 13.824 0.614 19.968-5.222 19.968-19.354 0.102-131.686-27.443-253.952-119.501-354.611-1.638-1.741-3.072-3.686-3.686-4.403 30.413-21.709 60.723-42.906 90.317-65.126zM649.626 673.69c-18.739 63.386-51.61 119.296-92.467 170.701-14.234 17.92-29.798 34.816-44.954 52.531-50.79-51.814-91.546-107.725-120.013-171.93-20.48-46.080-32.154-94.31-31.13-145.101 1.229-62.362 21.504-119.194 51.2-173.261 26.624-48.23 60.109-91.238 99.226-131.584 57.651 59.699 104.038 125.235 131.379 203.162 22.733 64.512 26.214 129.638 6.758 195.482zM510.976 320.307c-164.966 187.29-153.702 359.219 0 529.51 160.87-173.158 160.87-351.846 0-529.51zM472.576 271.462c-19.866 26.317-40.448 51.917-59.085 78.746-57.549 83.046-89.907 173.466-78.95 276.378 0.512 4.506-3.584 11.674-7.578 14.131-82.022 49.664-172.032 67.482-269.21 67.482 4.813-120.422 26.112-233.779 112.23-324.198 79.667-83.661 210.125-112.026 302.592-112.538zM291.738 626.278c5.222-2.867 11.674-10.547 11.366-15.565-5.939-107.213 30.72-200.499 91.546-286.208 3.072-4.403 5.837-9.114 9.011-13.824-40.653-6.451-147.251 35.84-195.277 78.643-85.606 76.288-109.773 178.381-119.603 288.87 73.421-4.506 140.8-18.432 202.957-51.917zM964.915 706.867c-3.891 0.512-6.861 1.331-9.728 1.331-82.637-1.024-162.099-15.77-236.134-54.17-32.154-16.691-31.846-17.101-28.467-53.965 0.512-6.042 0.512-12.186 0.307-18.227-2.662-84.070-31.232-159.334-78.746-227.738-19.558-28.262-41.165-55.194-64.717-86.63 37.99 5.632 72.294 9.011 105.984 15.872 142.746 28.979 242.381 107.725 285.594 250.675 16.998 56.115 24.883 113.459 25.907 172.851zM618.291 308.941c4.915 7.373 9.114 13.824 13.517 20.070 58.982 84.685 93.594 177.050 89.088 281.907-0.205 5.325 6.963 13.21 12.698 16.282 49.869 27.034 103.936 40.55 159.846 47.309 12.595 1.536 25.293 2.458 39.014 3.789 15.155-182.989-141.107-366.49-314.163-369.357zM832.41 328.192c-71.168-49.971-151.142-74.138-236.544-82.842-15.155-1.536-30.208-3.686-47.309-5.734 133.325-119.501 281.19-113.357 410.522 16.077-32.154 30.515-66.253 56.832-106.086 74.65-5.53 2.56-15.565 1.434-20.582-2.15zM913.818 256.717c-89.907-82.637-198.758-96.051-282.112-37.376 66.56 10.957 130.765 28.262 186.368 65.536 24.166 16.179 40.653 13.517 60.518-2.458 10.752-8.806 22.426-16.486 35.226-25.702zM204.39 320.307c-19.046 13.312-33.587 15.053-51.61 2.15-29.901-21.402-59.904-42.394-90.624-64 137.421-134.451 275.558-137.318 412.467-18.33-19.661 2.048-36.557 3.686-53.35 5.734-77.722 9.011-152.166 29.082-216.883 74.445zM107.93 257.229c21.504 13.926 42.086 27.648 63.283 40.346 3.277 1.946 10.65 0.717 14.336-1.741 60.109-40.55 127.181-62.669 197.837-75.162 2.15-0.41 4.198-0.819 7.373-1.331-82.432-57.549-187.494-46.899-282.829 37.888zM785.408 711.578c3.686 1.536 8.806 8.090 7.987 11.059-10.547 41.574-22.016 82.944-34.611 129.126-44.134-24.576-83.558-46.592-122.163-68.096 16.486-40.858 31.642-78.234 46.080-113.869 34.304 13.824 68.71 27.443 102.707 41.779zM739.942 808.346c7.373-25.498 14.131-48.845 20.992-72.909-22.016-9.114-40.96-16.896-60.928-25.19-8.294 19.558-16.384 38.912-25.6 60.621 20.787 11.776 41.574 23.654 65.536 37.478zM386.458 783.872c-39.526 21.709-79.053 43.418-121.958 67.072-13.722-47.923-25.907-90.931-38.093-133.53 40.038-16.998 77.21-32.768 113.766-48.23 14.95 36.864 29.798 73.83 46.285 114.688zM262.246 735.13c6.554 23.654 12.902 46.797 20.173 73.114 23.245-13.107 44.544-24.986 66.15-37.171-8.909-21.299-16.998-40.653-25.395-60.928-20.173 8.294-39.629 16.282-60.928 24.986z" />
<glyph unicode="&#xe93b;" glyph-name="star-line" d="M512 842.445l130.97-265.523 292.966-42.496-212.070-206.643 3.686-21.197 46.387-270.541-261.939 137.626-19.046-10.035-242.995-127.693 46.387 270.541 3.686 21.197-15.462 15.053-196.506 191.59 292.966 42.496 9.523 19.354 121.446 246.272zM512 934.912l-158.208-320.512-353.792-51.405 256-249.549-60.416-352.358 316.416 166.298 316.416-166.4-60.416 352.461 256 249.549-353.792 51.405-158.208 320.512z" />
<glyph unicode="&#xe93c;" glyph-name="star" d="M512 934.912l158.208-320.614 353.792-51.302-256-249.549 60.416-352.358-316.416 166.298-316.416-166.298 60.416 352.358-256 249.549 353.792 51.405 158.208 320.512z" />
<glyph unicode="&#xe93d;" glyph-name="stop" d="M926.208 960h-828.416c-25.702 0-46.592-20.89-46.592-46.592v-930.918c0-25.6 20.89-46.49 46.592-46.49h828.416c25.702 0 46.592 20.89 46.592 46.592v930.816c0 25.702-20.89 46.592-46.592 46.592z" />
</font>
</defs>
</svg>
